<?xml version="1.0" encoding="utf-8" ?>
<svg baseProfile="full" height="300mm" version="1.1" viewBox="0,0,200,300" width="200mm" xmlns="http://www.w3.org/2000/svg" xmlns:ev="http://www.w3.org/2001/xml-events" xmlns:xlink="http://www.w3.org/1999/xlink"><defs /><rect fill="#222222" height="300" width="200" x="0" y="0" /><text fill="#FFFFFF" style="font-size:12px; font-family:Arial; font-weight:bold;" x="10" y="20">grid</text><text fill="#FFFFFF" style="font-size:4px; font-family:Arial" x="10" y="280">ATHLETE</text><text fill="#FFFFFF" style="font-size:9px; font-family:Arial" x="10" y="290">ehlxr</text><text fill="#FFFFFF" style="font-size:4px; font-family:Arial" x="120" y="280">STATISTICS</text><text fill="#FFFFFF" style="font-size:3px; font-family:Arial" x="120" y="285">Number: 30</text><text fill="#FFFFFF" style="font-size:3px; font-family:Arial" x="120" y="290">Weekly: 1.5</text><text fill="#FFFFFF" style="font-size:3px; font-family:Arial" x="141" y="285">Total: 303.9 km</text><text fill="#FFFFFF" style="font-size:3px; font-family:Arial" x="141" y="290">Avg: 10.1 km</text><text fill="#FFFFFF" style="font-size:3px; font-family:Arial" x="167" y="285">Min: 10.0 km</text><text fill="#FFFFFF" style="font-size:3px; font-family:Arial" x="167" y="290">Max: 11.6 km</text><polyline fill="none" points="44.20000000001164,52.75389966623334 43.65897920605494,52.98057152282854 43.07712665409781,52.43389137706981 42.10737240081653,50.38047805059614 41.413232514227275,47.806978975429956 40.74971644615289,46.96690910059988 40.09640831762226,47.08691955802351 40.01474480156321,48.287015418369265 39.64725897926837,48.70037810187205 38.9327032136498,49.07373632949748 38.18752362951636,50.12713163373701 37.0238185255439,50.83383303442679 36.064272211748175,51.1405130650237 37.87107750476571,54.180589583033 38.11606805300107,55.28725886562461 37.57504725904437,55.713922942879435 36.68695652176393,55.34059198479372 36.29905482043978,54.59392546949675 35.758034026483074,54.193923028054996 34.69640831759898,54.07392195238208 32.961058601154946,54.967259493641905 32.399621928227134,54.740592590394954 31.909640831756406,54.11392232854996 31.215500945225358,54.60725885386637 29.87826086959103,53.98058767293696 29.857844990619924,49.31375152319379 29.817013232561294,49.047067935505765 29.408695652207825,48.7803835654704 29.143289224943146,50.527151969232364 28.367485822353046,51.02050795888499 28.15311909263255,51.86054037526628 27.81625708891079,52.22055189184903 24.44763705105288,52.38055655268545 22.21209829871077,51.607198083016556 20.282797731633764,52.11388196147891 19.874480151280295,51.900541725277435 19.119092627661303,49.72710953799833 18.5066162571311,48.82038627083239 16.220037807244807,49.46042716292868 15.69943289225921,49.36708814682788 15.240075614419766,48.993731124079204 14.780718336522114,48.02032881858031 14.158034026506357,47.27360217687965 13.668052930093836,46.95357459556544 12.800378071900923,46.88690204094746 12.22873345942935,46.60687677767419 11.799999999988358,45.846803857552004 12.198109640914481,45.246741799819574 13.933459357300308,44.80669377318554 15.495274102082476,45.23340704239672 16.852930056804325,45.10005936092057 17.781852552026976,44.75335447368707 19.078260869602673,43.8865864700565 20.578827977355104,43.48653691149957 21.436294896062464,42.85978906318633 21.77315689990064,42.139690455682285 27.173156899865717,40.63279898413748 29.224952741060406,40.28607705712784 29.429111531178933,40.97951958854537 29.194328922545537,48.20700952056359 26.50964083179133,48.95372849499108 23.70245746691944,49.08707052351383 22.222306238196325,48.95372849499108 21.599621928180568,42.899794374083285 23.4778827977716,42.65976224444603 24.876370510435663,42.833118846108846 26.040075614408124,42.393059134737996 27.316068052954506,42.23303689333261 29.378071833692957,42.75310814794648 29.327032136148773,48.26034679359145 34.69640831759898,47.64696626448131 35.462003780761734,49.91378673505096" stroke="#4dd2ff" stroke-linecap="round" stroke-linejoin="round" stroke-width="0.5"><title>2019-09-08 10.0km</title></polyline><polyline fill="none" points="80.20000000001164,52.486818873549055 79.88405158853857,52.992700783215696 79.34388172382023,52.93945018863451 79.08908461779356,52.58000785823242 78.16162315197289,50.98246916800417 77.74375589808915,49.7709835815258 77.81509908777662,48.945566557507846 77.52972632902674,47.97369495512248 77.09147530671908,47.32133694650838 76.54111355770146,46.97518589500396 76.19458949350519,47.01512646834453 76.0111355772242,47.2414560518082 75.88883296633139,48.572795118408976 75.05309845862212,49.01213272481982 74.38043409876991,49.983993207948515 72.87203523120843,50.86265263273526 72.10764391318662,51.00909504325682 72.32167348219082,51.79455484920618 73.86064800253371,54.497017172703636 74.06448568735505,55.442194363393355 73.74853727582376,55.64187842611136 72.93318653665483,55.535380313987844 72.56627870397642,55.28244679694035 72.20956275559729,54.53695443623292 71.3738282478298,54.13758101014537 70.69097200379474,54.071018601629476 68.94815979868872,54.869764282419055 68.27549543883651,54.65676612142124 67.87801195349311,54.13758101014537 67.27669078321196,54.53695443623292 65.74790814722655,54.004456144277356 65.88040264230222,48.70592795096309 65.78867568413261,48.413035461526306 65.49311104119988,48.306528867389716 65.23831393517321,48.74586776267097 65.12620320852147,50.796087822600384 64.30066058505327,51.04903384147474 64.18854985840153,51.88774454463419 63.8929852154688,52.19393858453259 60.59081472159596,52.36700432408543 58.205913809419144,51.56823661918315 56.76885813148692,52.02087251498597 56.09619377157651,51.994246936548734 55.75986159167951,51.62148801816511 55.1789241899387,49.7709835815258 54.52664359862683,48.77249429402582 52.24366152880248,49.424841872474644 51.560805284650996,49.22514413213503 49.981063227402046,47.06838053873798 48.6459263919387,46.76216920713341 48.08537275873823,46.44264323785319 47.79999999998836,45.91009745590418 47.93249449506402,45.49737232561165 48.31978609622456,45.23109705193929 49.981063227402046,44.81836883381038 51.560805284650996,45.29766594353714 52.82459893048508,45.004762455035234 57.30902799614705,42.821270296648436 57.96130858757533,42.06236132943013 63.94394463667413,40.35812157388864 65.36061654606601,40.35812157388864 65.46253538847668,40.59778222336172 65.23831393517321,48.23996218255343 64.31085246935254,48.346468854826526 62.55784838000545,48.95887979489635 59.693928908440284,49.078698843288294 58.277256999048404,48.95887979489635 57.57401698641479,42.94109744820162 59.428939918172546,42.72807129161083 60.89657124882797,42.874526827945374 63.108210128964856,42.2753890486274 65.38100031460635,42.80795615891111 65.38100031460635,48.306528867389716 70.56866939290194,47.61423295894929 71.0374960679328,48.506228628852114" stroke="#4dd2ff" stroke-linecap="round" stroke-linejoin="round" stroke-width="0.5"><title>2019-09-05 10.0km</title></polyline><polyline fill="none" points="116.20000000001164,52.35389572576969 116.11833648395259,52.793907542843954 115.53648393187905,52.927244036669435 114.56672967859777,52.1672234024154 113.82155009446433,50.2071408643169 113.87258979206672,49.30042172007961 113.63780718331691,48.36702491885808 113.13761814741883,47.526959603441355 112.40264650277095,47.0469187947383 112.04536862001987,47.513625170751766 112.0862003780785,48.22034740733943 111.91266540635843,48.76705329292599 111.20831758028362,49.02040368604503 110.24877126648789,50.22047490188561 109.00340264645638,50.96717788535898 108.12551984877791,51.153852672854555 109.88128544419305,54.220597878142144 110.1773156899726,55.44726699466264 109.80982986761956,55.75393168775918 108.92173913039733,55.6072660940481 107.77844990545418,54.300598542431544 107.09451795840869,54.153930604115885 105.73686200374505,54.540600112915854 105.01209829864092,55.04726801437937 104.4302457466838,54.873934576397005 103.91984877124196,54.220597878142144 103.35841209825594,54.68726742739818 101.80680529295933,54.12726368082804 101.90888468804769,48.99373525682313 101.39848771266406,48.967066819852334 101.28620037803194,49.100408926628006 101.11266540637007,50.9538439572716 100.31644612469245,51.193854363198625 100.18374291108921,52.020552022280754 99.77542533073574,52.3272282744947 96.69262759917183,52.447231743739394 94.25293005665299,51.6738732740705 92.71153119090013,52.11388838249695 92.03780718334019,52.11388838249695 91.14971644611796,49.80711882728065 90.55765595461708,48.94039837501623 90.2922495273524,48.86039299357799 88.46502835536376,49.500434073474025 87.68922495271545,49.4470974889191 87.29111531184753,49.127077324512356 86.84196597349364,48.16701007170923 86.05595463135978,47.24693610642862 85.61701323249144,46.993580770649714 84.73913043475477,46.92690819648851 84.03478260862175,46.500202563925995 83.79999999998836,45.92681371601793 83.92249527404783,45.513438116897305 86.04574669181602,44.9133734182833 87.27069943287643,45.31341699087352 89.40415879018838,45.0733910586132 90.99659735348541,44.046606304757006 92.64007561432663,43.6065521454002 93.47712665406289,42.91312914666196 93.71190926275449,42.299712084386556 100.07145557651529,40.24606831224082 101.12287334591383,40.366087731359585 101.36786389409099,40.45943605887442 101.46994328917935,40.766151317206095 101.28620037803194,48.24701606340386 98.54026465024799,49.00706947241997 95.76370510394918,49.140411520551424 94.22230623813812,48.967066819852334 93.63024574663723,43.0064748584482 95.39621928165434,42.726437435499975 96.88657844992122,42.91312914666196 98.47901701321825,42.286376884847414 99.44877126649953,42.31304728193936 100.94933837425197,42.76644283449423 101.32703213609057,43.48653700493014 101.40869565214962,48.36702491885808 106.13497164455475,47.606966158411524 106.99243856332032,48.58037360410526 107.3497164460714,49.51376821471786" stroke="#4dd2ff" stroke-linecap="round" stroke-linejoin="round" stroke-width="0.5"><title>2019-08-29 10.0km</title></polyline><polyline fill="none" points="147.14555517124245,56.58613721436268 152.20000000001164,47.83201356195059 151.66205465240637,47.29034523529117 150.84392943617422,47.02682985118008 150.74306468351278,48.19800401032262 150.51892078865785,48.622551249034586 149.89131788309896,48.91534139592841 148.92749913525768,50.130411326827016 147.58263576618629,50.87701322430803 146.52915946039138,51.1551576013444 147.7171221030876,52.955757712312334 148.2998962296988,54.55138432192325 148.52404012455372,55.5907237156498 148.10937391908374,56.13234699762688 147.3360774818575,55.898131885012845 146.2377723971149,54.756325340676995 145.3187824282213,54.36108157057606 143.76098235906102,54.8880729162629 142.97647872706875,55.41506147952896 142.4049117952236,55.16620611579856 141.8109304739046,54.478190998968785 141.07125562091824,55.04909749467333 139.61432030441938,54.331804191999254 139.49104116222588,54.14150102199346 139.72639225184685,52.54586785976426 139.49104116222588,51.521135863891686 139.54707713599782,48.91534139592841 139.0315461778082,48.54935357809154 138.84102386719314,48.57863265290507 138.71774472494144,50.71598191488738 137.8099619508721,51.111240119666036 137.61943964025704,51.945668967222446 137.27201660326682,52.31164433113008 133.8874437910854,52.45803410092776 131.4106537529733,51.638248624476546 129.1692148045404,52.13597632391611 128.5416118989815,51.696804953200626 127.73469387751538,49.72050987104012 127.26399169833167,49.12029398770392 126.9389830508153,48.973899322227226 124.6639225181425,49.33988558322744 123.94666205463,49.193491239871946 123.30785195436329,48.69574886626651 122.37765479070367,47.17322737269569 120.48363887926098,46.47051731097599 119.79999999998836,45.753162352782965 119.84482877893606,45.211482743041415 120.41639571083942,44.77228090114659 122.18713248008862,44.39163774132612 123.70010377035942,44.81620117229613 125.44842615013476,44.62587985762366 126.12085783464136,44.40627788970596 127.4881355931866,43.45466377799312 129.15800760983257,43.000813852006104 130.2226911103935,42.224872100727225 130.267519889283,41.85885974663688 130.71580767899286,41.419643149652984 138.022898650961,39.41386278563732 138.9979245935683,39.41386278563732 138.76257350394735,48.15408522739017 137.6418540297309,48.241922773951956 135.89353164995555,48.78358593610028 131.16409546870273,48.886062419886 130.3571774472366,42.37127666651213 132.4977516430081,41.99062434874213 134.0555517122266,42.16631021427747 135.90473884466337,41.58068945966079 137.14873746107332,41.53676776451175 138.96430300932843,42.07846732015605 138.96430300932843,48.15408522739017 144.8032514700899,47.42210266638722 146.08087167068152,50.92093080904306" stroke="#4dd2ff" stroke-linecap="round" stroke-linejoin="round" stroke-width="0.5"><title>2019-08-26 10.2km</title></polyline><polyline fill="none" points="188.19999999995343,52.228549619605474 187.99577686726116,52.28190134681063 187.85282067442313,52.695376171577664 187.42395209579263,52.868768280568474 186.39262527570827,51.74838266597362 185.68805546796648,49.96107227835455 185.76974472106667,49.134095883520786 185.5246769618243,48.26709642643982 184.7077844311134,46.99992850393028 184.01342577999458,47.240024834667565 183.9317365269526,48.5472048472875 183.75814686418744,48.773958651210705 183.00252127321437,49.05406551073247 182.1754175858223,50.187822556719766 180.66416640399257,51.01478936900821 180.031074692728,51.08147991327132 181.73633785056882,54.055828455144365 182.04267254960723,55.36291049875581 181.71591553732287,55.696346788157825 180.960289946408,55.52296007023688 179.76558462023968,54.40260715477052 178.92826977616642,54.08250378667435 178.397289631248,54.389269536943175 177.6518751969561,54.522645627301245 177.00857232901035,55.00279793307709 176.25294673803728,54.72270939613372 175.84450047271093,54.13585442627664 175.20119760476518,54.669359100807924 173.65931295300834,54.002477768626704 173.81248030246934,49.08074230951752 173.2815001575509,48.68058950630075 172.92410967533942,50.708012235445494 172.30122912063962,50.948098775836115 171.96426095173229,51.92177658057335 171.5660258430289,52.12184607122617 169.2276709738071,52.32191512170539 168.59457926248433,52.295239273698826 167.62451938225422,51.788396675627155 166.6544595019659,51.561650388241105 164.62243933178252,52.00180442965211 163.90765836747596,51.84174866106332 163.12139930663398,49.92105746464222 162.3657737156609,48.88066612800321 160.44607626838842,49.41420163372095 159.70066183415474,49.307494782988215 159.2105263157282,48.88066612800321 158.4344784115674,47.69353839637188 157.60737472417532,46.9599123871958 156.80069335008739,46.82652520414558 156.00422313262243,46.26629689872061 155.79999999998836,45.82611509448179 156.00422313262243,45.42594796881167 157.8524424834177,44.89238906177343 159.6393948943587,45.34591433235619 160.8136779072811,45.199185815836245 161.81437125743832,44.825693978236814 163.0294988969108,43.95865344069898 164.30589347617934,43.70520926043537 165.34743145282846,42.918193882163905 165.41890954930568,42.46465650245955 166.04179010394728,42.117832273877866 172.00510557822417,40.42371029764763 173.18959974782774,40.3036532118349 173.31213362747803,41.78434619111795 173.0874881814816,47.85360146634048 172.94453198858537,48.16038822966948 170.7899779388099,48.86732770023082 167.97169870778453,49.0407271084041 166.1949574534665,48.88066612800321 165.51080995902885,44.585591272501915 165.45975417579757,43.118283183459425 166.66467065864708,42.744782798232336 168.76816892524948,42.758122124119836 170.56533249287168,42.211208157888905 171.38222502358258,42.26456576282362 172.21953986759763,42.66474680180545 172.8117869523703,42.71810414058564 173.02622124168556,42.93153318262921 173.2406555310008,44.065366568393074 173.0466435549897,46.46637883261428 173.2406555310008,48.107034084292536 173.6388906397042,48.227080867298355 178.05011030565947,47.60016814205301 178.57087929401314,48.213742343687045 179.25502678850899,50.187822556719766 179.65326189721236,50.654659584819456" stroke="#4dd2ff" stroke-linecap="round" stroke-linejoin="round" stroke-width="0.5"><title>2019-08-24 10.0km</title></polyline><polyline fill="none" points="44.199999999953434,93.11700785619905 43.56369971483946,93.74706512384728 42.88634779851418,92.78186924217152 41.921634463069495,90.7442000190349 41.73690212221118,88.97460831036005 40.91586949629709,87.74123625100765 40.269306303409394,87.95573693523329 40.166677225148305,89.34997911166283 39.15064935060218,89.9264384119233 38.463034526386764,90.93188197847485 37.10833069361979,91.69601169173984 36.225720620772336,91.93731448447215 38.06278112123255,95.12781373495818 38.29882800125051,96.13320008586015 37.960152043029666,96.50854148864164 37.62147608486703,96.54875654749776 37.08780487801414,96.28065582077397 35.958885017374996,95.03397711129946 35.37389927136246,94.89992462469672 33.8755147291231,95.30208149475948 33.24947735189926,95.79807253098988 32.387393094657455,95.39591784316144 32.100031675596256,94.96695089258719 31.40215394354891,95.48975409527338 29.985872663906775,94.8865193652091 29.84219195431797,94.59160315935878 30.006398479570635,89.47063368467934 29.68824833695544,89.08185726802913 29.38036110228859,89.29635480587604 29.24694330058992,91.68260596233449 28.415647766843904,91.88369169666112 28.271967057313304,92.78186924217152 27.953816914756317,93.04998023172084 24.608108964166604,93.13041337519098 22.298954703786876,92.37970128318557 20.841621792817023,92.83549150299223 20.133481152937748,92.80868037648906 19.805068102607038,92.44672939922748 19.09692746278597,90.38224086599803 18.552993348042946,89.56447602024855 16.397782705083955,90.20796372547193 15.535698447842151,90.00687430428661 14.088628444704227,87.98254948536487 13.401013620488811,87.64739204335638 12.508140639867634,87.5535477393496 12.036046879948117,87.20498233786202 11.799999999988358,86.61509939911048 11.912891986081377,86.23971736482781 14.037313905602787,85.62301496117288 15.535698447842151,86.05202576949523 17.023820082307793,85.93136668321677 17.85511561605381,85.59620171882852 19.117453278391622,84.67114003896131 20.554260373755824,84.36278406479687 21.53949952480616,83.59859303587291 21.785809312656056,82.94165178021649 28.518276845046785,81.06465074143489 29.28799493185943,81.05124345250078 29.58561925875256,81.29257435265754 29.31878365529701,89.06845115521719 26.445169464626815,89.69853633242747 22.298954703786876,89.71194235282019 21.621602787461597,83.75947588879353 23.42787456442602,83.47793071030901 25.08020272408612,83.61199995112838 27.030155210581142,82.95505879185657 29.28799493185943,83.46452377541573 29.45220145705389,83.73266209963185 29.48299018049147,89.08185726802913 34.54260373767465,88.35792436124757 35.14811529929284,89.25613655585039" stroke="#4dd2ff" stroke-linecap="round" stroke-linejoin="round" stroke-width="0.5"><title>2019-08-21 10.0km</title></polyline><polyline fill="none" points="80.19999999995343,93.66929132906807 79.79206798865926,93.4694755821547 79.32294617558364,93.66929132906807 78.52747875353089,92.55031748416513 78.41529745043954,92.12403810748219 78.06855524081038,91.83096987540193 77.69121813029051,90.5521156140021 77.60963172803167,89.32653004884196 76.72237960342318,87.70127150834014 76.02889518416487,87.90109994626982 75.92691218131222,89.24659998096467 74.91728045325726,89.89936014327395 74.26458923507016,90.80522361584735 72.89801699714735,91.64447141717392 72.07195467420388,91.80432726192521 73.94844192633172,95.187876640186 74.06062322948128,95.98712186900957 73.6526912181289,96.45334500468743 73.13257790362695,96.37342120851827 72.61246458924143,96.00044256322872 71.86798866855679,94.92146000099456 70.92974504246376,94.81489312652411 68.97167138807708,95.73402830745181 68.23739376774756,95.30776387285732 67.91104815865401,94.85485571910976 67.2379603399313,95.41433016902738 65.97337110486114,94.81489312652411 65.6674220963032,94.29537782289844 65.71841359772952,89.06009621571866 65.29008498584153,89.10006134051218 65.2390934844152,89.29988670068269 65.10651558073005,91.51125799823058 64.28045325778658,91.8176485696822 64.06628895184258,92.73681408236735 63.811331444769166,92.94995258279232 60.435694050975144,93.08316389154061 58.26345609064447,92.32385681440792 56.70311614725506,92.7900987543544 56.081019830016885,92.77677758927166 55.72407932009082,92.37714172865526 55.081586402258836,90.40557907996845 54.49008498585317,89.48638997353555 52.38923512742622,90.13914841236692 51.6549575070967,90.01925435695739 51.21643059485359,89.71285771851399 50.696317280468065,88.63380045694794 49.96203966002213,87.80784672994923 48.72804532572627,87.55473037438787 48.07535410759738,87.20835948152671 47.79999999998836,86.74208888570865 47.83059490082087,86.23584952833335 50.08441926346859,85.56974081118096 51.593767705373466,86.02269527040335 53.2152974504279,85.796218323223 54.02096317283576,85.44984072325315 54.80623229459161,84.83701557926543 56.315580736496486,84.437344779064 57.40679886681028,83.58470785975805 57.4475920679979,83.19835412006069 57.773937677033246,82.91857969621924 64.42322946176864,81.14665499530383 65.39206798863597,81.2399150520796 65.14730878185946,89.02013107331732 64.15807365439832,89.1533481462393 62.75070821528789,89.67289286339656 58.47762039658846,89.77946577131661 58.171671388088726,89.59296310034551 57.580169971624855,85.17007323577855 57.55977337108925,83.77122286990925 58.84475920681143,83.5180952633018 60.71104815858416,83.62467539415229 63.02606232295511,83.01183793327073 65.26968838530593,83.5180952633018 65.30028328608023,88.9934876353218 70.3280453257612,88.39400821325398 70.7869688385399,88.96684418946825 71.08271954674274,89.75282255605998" stroke="#4dd2ff" stroke-linecap="round" stroke-linejoin="round" stroke-width="0.5"><title>2019-08-15 10.0km</title></polyline><polyline fill="none" points="116.19999999995343,93.58810460630775 115.62745345535222,93.45455769704859 115.34118018299341,93.64152331517835 113.60309245815733,90.75686818889517 113.33726727671456,89.03404445437627 112.43755127798067,87.79198851597903 112.19217418733751,87.79198851597903 112.00814136950066,88.08580973035714 112.05926159670344,89.03404445437627 111.87522877875017,89.40799346128188 111.05730514356401,89.76858569198521 110.17803723568795,90.95719441449182 108.83868728304515,91.69172013742354 108.01053960237186,91.91875416205585 109.9224360997323,95.0838166086105 110.08602082671132,96.1655215867213 109.70773114543408,96.48602429770108 109.3703376459307,96.49937855287135 108.60353423794731,96.07204141686088 108.20479646575404,95.24407000880456 107.8265067844768,94.95027189305256 106.75298201321857,94.88349946177186 104.88198169769021,95.77824597252766 104.22764278948307,95.36425987384428 103.9004733354086,94.87014496966003 103.25635847263038,95.43103195257572 101.91700851998758,94.88349946177186 101.61028715682914,94.14899948638049 101.68185547483154,89.82200664179982 101.24222152098082,89.36792756972864 101.0990848847432,91.53146048505732 100.19936888600932,91.90539923512551 100.06645629537525,92.7334010023551 99.76995897758752,93.00049674044567 96.42669611860765,93.12068956692383 94.19785421265988,92.37282051311922 92.21438939723885,92.88030375525705 91.7543073524721,92.53307868461707 91.05907226254931,90.4497004536097 90.47630167240277,89.52819103023648 88.3190280845156,90.18259723282972 87.81804985797498,90.16924205118994 87.26595140417339,89.79529617081425 86.79564531391952,88.76693708053062 86.11063426948385,87.92554373096209 84.36232249910245,87.45809962135536 83.79999999998836,86.549915633208 84.03515304508619,86.18931065467041 86.21287472383119,85.68179011705797 87.54200063110329,86.0557528927311 89.07560744712828,85.8554158825209 90.89548753545387,84.74687645753875 92.37797412427608,84.42633242128795 93.37993057741551,83.61161124953651 93.4412748500472,83.17085741263872 93.67642789520323,82.95715781448962 100.12780056794873,81.16740398728871 101.32401388452854,81.10062144711992 101.46715052064974,81.72837539064494 101.18087724829093,89.02068910431262 100.05623224988813,89.18095317599364 98.55329757014988,89.71516471090581 95.83370148309041,89.86207233352616 94.17740612180205,89.6884542086118 93.52306721359491,83.69174808153184 95.41451562003931,83.46469354096189 96.98901861783816,83.61161124953651 98.53284947929205,83.07736390015634 99.29965288733365,82.99722652736818 101.34446197538637,83.58489895649109 101.27289365726756,88.9939783982627 106.67118964967085,88.41969632301334 107.4788892394281,90.9037741307111" stroke="#4dd2ff" stroke-linecap="round" stroke-linejoin="round" stroke-width="0.5"><title>2019-08-12 10.1km</title></polyline><polyline fill="none" points="152.20000000006985,94.75579685768753 150.6725714285858,94.51396276675223 148.98314285720699,92.57927982522233 148.03428571438417,90.88641735386045 147.80285714298952,88.95170036048512 147.0391428573057,87.19834739761427 147.131714285817,85.32405704559642 146.69200000003912,83.78228930127807 144.30828571447637,81.30334443323954 143.3131428572815,82.30097217277216 143.3131428572815,84.23575159978645 142.71142857149243,85.32405704559642 141.13771428586915,86.01936029402714 139.40200000011828,88.40755793376593 136.92571428592782,89.88883117208024 134.70400000014342,90.55388916311495 135.07428571442142,92.09560625220183 137.89771428587846,97.20435104632634 139.00857142871246,101.52703620147076 140.76742857159115,103.85459835159418 140.95257142873015,103.49186312196252 138.9622857144568,102.34319735025929 136.87942857155576,100.0760750683985 135.16685714304913,99.41104780216119 133.87085714295972,97.96007177334104 132.2508571430808,97.29503767978167 130.28371428581886,97.65778381505515 128.75628571445122,98.8367043454491 128.33971428591758,98.38327417023538 126.09485714300536,98.47396028506046 124.96085714292713,97.59732617024565 124.03514285723213,98.32281673817488 120.5637142858468,97.29503767978167 119.80000000004657,95.81381766864797 120.30914285732433,84.7194436185091 121.37371428578626,83.93344351164706 123.01685714302585,83.54044233405148 126.92800000007264,83.11720945857815 127.20571428583935,80.3964059339487 126.41885714302771,78.58251696165826 126.23371428588871,76.55698874141672 126.53457142878324,75.2872444816021 127.57600000011735,74.04772468174633 128.06200000015087,74.56167282059323 128.94142857159022,77.67556648849859 129.70514285727404,78.34066389242071 130.07542857155204,78.37089554160775 129.8440000001574,77.64533473737538 130.28371428581886,76.88953951664735 132.20457142859232,75.40817284341028 134.51885714300442,75.37794075961574 137.45800000010058,78.40112718632736 142.43371428584214,81.03126330256055 144.21571428573225,81.06149455699779 145.16457142867148,81.60565637947002 146.43742857151665,83.08697850556928 147.10857142857276,84.87059714157658 146.83085714292247,87.25880809289811 144.539714285871,89.2540010878729 142.27171428583097,89.13308085006429 140.09628571441863,88.01456528769631 135.6991428572219,90.37250992389454 134.47257142874878,90.55388916311495 138.19857142865658,97.56709734110336 138.80028571432922,100.0760750683985 138.52257142879535,100.86201361674466 135.19000000006054,99.92493269625993 131.76485714304727,97.68801263078058 130.12171428580768,97.83915664325468 127.83057142863981,99.01807613634446 124.86828571453225,97.59732617024565 123.38714285730384,98.53441767285403 119.80000000004657,97.17412215957302 120.23971428582445,85.59613250909024 121.7671428573085,83.96367434042622 127.32142857159488,83.11720945857815 127.066857142956,80.66848790275981 126.0485714286333,78.8546013252635 125.90971428586636,77.58487122169754 127.80742857151199,73.7454016484262 129.42742857162375,78.5220537208661 130.81600000010803,78.76390657732554 130.33000000019092,77.67556648849859 131.48714285728056,75.86165356812126 132.87571428576484,75.16631604880968 134.2180000001099,75.37794075961574 135.44457142869942,76.04304557862633 137.24971428583376,78.43135882655042 141.60057142865844,80.4266372815473 142.43371428584214,81.27311321423622 126.99742857157253,83.02651658641116 125.81714285723865,84.29621316413977 125.44685714307707,85.4449795181572 125.65514285734389,87.25880809289811 126.53457142878324,88.5284785971453 128.17771428579,88.7098594592826 131.25571428588592,88.01456528769631 132.50542857160326,88.43778810625372 134.0328571429709,90.46319956344087 135.9074285714887,90.402739808138 139.4251428572461,88.25640700470831 141.20714285725262,85.8984381583432 143.03542857151479,84.90082783284015 143.35942857153714,84.41713623987744 143.1280000001425,82.05912346713012" stroke="#4dd2ff" stroke-linecap="round" stroke-linejoin="round" stroke-width="0.5"><title>2019-08-10 10.1km</title></polyline><polyline fill="none" points="188.20000000001164,94.01371679588192 186.86089764290955,91.14399597940792 186.70397158537526,89.62710783868533 185.71010655467398,88.45184419082216 185.08240232476965,88.19219092022831 184.569777203782,89.46311845226592 183.79560865351232,89.91408857035276 183.06328705197666,90.96634369021194 181.68233774625696,91.85460174866603 180.85586051020073,92.03225234412093 182.45650629635202,95.09325555679243 182.64481756539317,96.20011142624571 182.24727155308938,96.58272521183244 181.4312560542603,96.45974238062627 180.62570229254197,95.2982298580173 180.06076848565135,95.18891028681537 178.50196964800125,95.5305335208759 177.549951566034,96.04979843776528 176.49331611237722,95.28456491856923 175.67730061348993,95.63985269121622 174.43235389090842,95.18891028681537 174.1708104616846,93.9727214065133 174.2126574103604,89.34012622303999 173.89880529540824,89.31279459450889 173.7104940264835,91.44463754323078 172.82124636741355,91.96392523215764 172.80032289313385,92.78384726918011 172.3713916693814,93.1938055819337 171.4926057474804,93.23480131396354 172.1726186631713,93.24846655398142 172.50739425246138,93.0434877433654 172.71662899578223,92.5788674364012 172.58062641264405,92.1552410195145 169.8291895382572,91.4856340449478 171.2101388440351,91.78627450639033 171.10552147234557,90.69303181458963 171.13690668385243,91.11666488002811 172.27723603486083,91.8409363042374 172.73755247006193,91.28065135593351 173.67910881497664,90.98000926292298 174.01388440426672,81.67329007313674 173.82557313528378,81.0172747881661 172.8107846303028,81.0309418203833 165.9478850500309,82.97164003839862 165.68634162086528,83.68230814555136 165.36202776880236,83.7506413316878 164.71340006456012,84.37930429235712 162.95582822081633,84.81663254544401 162.5687439457397,85.24029233284818 161.51210849208292,85.84161259410757 160.05792702618055,86.10127241610462 158.03881175327115,85.6229511300262 156.08246690343367,86.14227126922924 155.79999999998836,86.55225880792568 155.85230868577491,86.92124605010758 156.45908944134135,87.61821796463482 157.68311268964317,87.78221059848147 158.21666128502693,88.11019500022667 158.91759767517215,88.95748269373144 159.31514368741773,89.873091377136 159.8905392314773,90.33772517769103 159.32560542452848,89.8457599049434 159.04313852108316,89.20346800014522 158.907135937945,87.79587663829443 158.01788827893324,87.45422504204907 157.64126574102556,87.71388036946882 156.45908944134135,87.59088583090488 155.86277042294387,86.78458427897567 155.99877300614025,86.25160145596601 158.12250565062277,85.66395019361516 159.53484016784932,86.08760612775222 160.968098159472,86.01927465574408 161.80503713269718,85.70494923918159 163.33245075878222,84.72096716550732 164.73432353889802,84.40663736832357 165.69680335803423,83.72330806324317 166.4291249596281,89.76376544023515 166.63835970289074,90.00974861782743 167.7682273167302,89.996082902755 166.68020665156655,89.96875146668754 166.50235711981077,89.77743118935177 165.9897319987067,85.3632899747754 167.04636745230528,85.0352959021402 167.67407168220961,83.47730828641943 169.5885695834295,83.60030825606373 171.44029706163565,82.93063978986174 173.82557313528378,83.55930828420242 173.74187923799036,88.27418676808884 173.89880529540824,89.21713383143651 185.34394575399347,87.85054077740642" stroke="#4dd2ff" stroke-linecap="round" stroke-linejoin="round" stroke-width="0.5"><title>2019-08-07 11.6km</title></polyline><polyline fill="none" points="44.20000000001164,134.5129486342703 43.432469993655104,134.52631595718412 42.72634238784667,132.68160686946067 41.99974731518887,131.50525114293123 41.9895135818515,130.87696402306756 41.36525584332412,129.16586224598723 41.007075173722114,128.67124090291327 40.65912823751569,128.5642953946881 40.30094756791368,128.63113635204354 40.116740366385784,128.95197226490563 40.1679090334801,129.9144732265995 40.02463676565094,130.2085687150684 39.2571067592944,130.52939907470864 38.38723941880744,131.69239966051828 37.108022741624154,132.4142546285657 36.217687934287824,132.69497446098103 37.988123815564904,135.7962026887326 38.24396715097828,136.95913606941758 37.80391661403701,137.2933095837143 37.21036007581279,137.22647497888101 36.66797220468288,136.9324021353168 36.42236260266509,136.2506841670329 35.95161086547887,135.7962026887326 34.856601389765274,135.70263269127463 33.13733417558251,136.58486027881008 32.47214150347281,136.38435475876759 31.991156032832805,135.74273413050832 31.315729627327528,136.2506841670329 29.80113708152203,135.67589838861022 29.95464308274677,130.34224816886854 29.79090334806824,129.9144732265995 29.361086544580758,130.00804916679044 29.166645609540865,132.4944603831973 28.378648136451375,132.68160686946067 28.276310802262742,133.4836588867547 27.98976626660442,133.80447771729814 24.602400505391415,133.9916215136618 22.412381553964224,133.21630899858428 20.744283006933983,133.67080334181082 20.0688566013705,133.64406844318728 19.106885660090484,131.2111598388219 18.646367656358052,130.50266325452685 18.37005685409531,130.38235196673486 16.241440303216223,131.03737816758803 15.606948831293266,130.91706758568034 15.248768161749467,130.59623859079147 14.829185091599356,129.6203767889965 14.051421351847239,128.75144995174924 13.539734680962283,128.4840861811681 12.66986734047532,128.40387689702038 12.147946936194785,128.0964073205323 11.799999999988358,127.52157011221425 11.881869867327623,127.13388715701149 12.240050536987837,126.85315019432164 13.908149084018078,126.43872738305072 15.514845230500214,126.8932555276333 17.275047378381714,126.69272868450207 19.168288060638588,125.54303293320118 20.63171193934977,125.1820789497433 21.491345546441153,124.50027308013523 21.54251421353547,124.03236413945706 21.747188881854527,123.83183100083988 28.685660138959065,121.9066904162828 29.453190145315602,121.93342875848612 29.565761212841608,122.12059693418996 29.299684144032653,129.8877372259958 28.184207201527897,130.03478513205482 26.69008212251356,130.56950279025477 22.26910928619327,130.55613488701783 21.644851547665894,124.59385457995086 23.48692356282845,124.25963449644769 24.84801010740921,124.46016669362871 26.925457991135772,123.88530654761416 27.774857864773367,123.89867542942375 28.89033480733633,124.32647861119767 29.391787744825706,124.32647861119767 29.340619077673182,129.67384893917915 29.49412507895613,129.94120921929425 34.75426405557664,129.28617513976496 35.04080859129317,129.84763321046194" stroke="#4dd2ff" stroke-linecap="round" stroke-linejoin="round" stroke-width="0.5"><title>2019-07-31 10.0km</title></polyline><polyline fill="none" points="80.20000000001164,133.72453427543223 79.85161290323595,133.99472879247332 78.46895161294378,131.06521122327104 78.18588709679898,130.9514417651808 76.07379032258177,131.5345088267204 74.68024193547899,130.89455698609527 72.89475806453265,131.87581474790932 72.02379032259341,132.03224622698326 73.97258064511698,135.4025722512888 74.60403225809569,137.62095076494734 75.13750000001164,138.3461788862478 75.5947580645443,138.61636052506947 74.95241935481317,138.16131733119983 74.42983870970784,137.29388532771554 73.07983870967291,136.76773426600994 72.75322580646025,135.9287307208433 72.16532258066582,135.45945438565832 71.22903225809569,135.34569008360268 69.08427419356303,136.1989190956956 68.26774193544406,135.9571716378705 67.60362903226633,135.23192564805504 66.91774193552556,135.800746491077 65.43709677417064,135.2177050842074 65.24112903221976,134.26492255652556 65.28467741934583,129.06000496555498 63.640725806413684,129.14533373626182 61.85524193546735,129.7141902883959 57.32620967744151,129.77107576007984 56.49879032251192,123.31436162625323 56.60766129032709,122.67435552338429 63.84758064511698,120.5978621854374 64.94717741932254,120.5978621854374 64.62056451616809,131.83315157346806 63.074596774124075,132.03224622698326 61.09314516122686,131.39229767161305 56.38991935481317,130.8234509652757 54.517338709614705,129.94173197474447 52.1875,127.92228084684757 51.46895161282737,127.68051275163452 49.00846774189267,127.46718746102852 48.28991935483646,127.04053547166404 47.79999999998836,125.61834861320676 47.95241935481317,125.53301673828537 48.86693548387848,125.4050187850371 50.031854838714935,125.8458999125287 51.67580645158887,125.73212432961009 52.65564516122686,125.36235276301159 53.907661290315446,124.40947337990656 55.52983870962635,124.02547456294269 55.965322580595966,123.42814004663524 56.44435483869165,123.28591700027755 56.74919354834128,122.57479863875051 63.69516129029216,120.64053030432842 64.95806451613316,120.5836394749349 64.8491935483762,128.98889759931626 70.55403225804912,128.37737209647457 71.62096774193924,131.40651879650977 71.92580645158887,131.90425685378432 72.30685483873822,131.97536208196107" stroke="#4dd2ff" stroke-linecap="round" stroke-linejoin="round" stroke-width="0.5"><title>2019-07-03 10.0km</title></polyline><polyline fill="none" points="116.19999999995343,135.0882825605804 112.61466395121533,127.44565756192605 111.42688391031697,128.93972800197662 109.66720977588557,130.06027335378167 108.0395112016704,130.203932550663 105.24602851318195,128.853531940229 102.36456211807672,130.6349095092737 100.25295315682888,131.1233489161241 104.21221995935775,137.4154888461053 104.7621181262657,140.34600558303646 105.77393075358123,142.61568940177676 106.80773930752184,143.99472495571536 107.84154786157887,144.45440131657233 106.47780040744692,143.56377738784067 105.00407331972383,140.48965723710717 103.9702647656668,141.03553256203304 102.36456211807672,140.92061156737327 101.52871690434404,140.4321965881536 100.73686354374513,138.53598571609473 99.74704684317112,137.76025779648626 97.41547861509025,137.67406561573443 96.29368635441642,138.44979387667263 94.86395112017635,138.62217751755088 94.18207739316858,139.48409344640095 93.23625254584476,139.71393705361697 91.32260692457203,137.58787339714763 89.67291242361534,139.05313595599728 86.52749490842689,137.32929651375161 86.94541751535144,125.08960025198758 86.81344195525162,124.83100687024125 85.7136456213193,125.23326309444383 85.22973523428664,130.77856828474614 83.80000000004657,131.03715381516668 85.51568228111137,130.72110478726972 85.7356415479444,124.9746699022653 89.10101832996588,124.94593730430643 94.13808553968556,124.19888827747491 93.5002036660444,120.17626761911379 92.48839103872888,118.53846268632333 92.40040733199567,117.36038400346297 92.90631364565343,115.89495916766464 94.31405295315199,114.80306686782569 95.50183299393393,119.02693225730036 96.07372708758339,119.83146771870088 97.34949083498213,119.97513441753108 96.62362525460776,118.4809955979872 97.28350305499043,117.21671538670489 99.35112016287167,116.55583839214523 101.41873727086931,116.98684538059752 102.60651731153484,118.99819878679409 104.14623217924964,120.09006770086125 107.40162932791281,121.44052872773318 108.87535641540308,122.4749181108491 110.7450101833092,122.27378726974712 111.86680244409945,123.68169882065558 112.63665987772401,125.69298348209122 111.99877800419927,128.2214263282076 109.7331975561101,130.0028096455062 107.68757637473755,130.1464688846172 105.33401222003158,128.7673358405009 101.3307535641361,131.03715381516668 99.92301425663754,131.1808122957009 102.1006109979935,133.76664692928898 104.34419551945757,137.9326420440775 104.80610997963231,140.4321965881536 105.83991853357293,143.01790910777345 106.58778004080523,144.08091435556707 107.53360488801263,144.3394823273702 106.54378818743862,143.96599514738773 105.00407331972383,140.48965723710717 103.50835030549206,141.26537434895 102.56252545828465,141.12172326374275 101.17678207741119,139.88631958207407 100.73686354374513,138.33487136522308 99.83503054990433,137.58787339714763 97.34949083498213,137.64533488043526 96.09572301420849,138.42106325512577 94.5780040732352,138.67963869744563 93.85213849286083,139.57028483069735 93.19226069247816,139.71393705361697 91.27861507132184,137.50168114055123 89.40896130353212,139.05313595599728 86.6594704685267,137.44421961512126 86.94541751535144,124.77354162794654 85.99959266802762,125.06086767090892 94.02810590632726,124.14142284970148 93.45621181256138,120.2050009166851 92.37841140537057,117.73392191404128 92.81832993892021,116.18229823491129 94.49002036661841,114.74559868342476 95.50183299393393,119.08439918555086 96.18370672105812,119.94640108624299 97.37148676172365,120.09006770086125 96.64562118123285,118.56719622427772 97.21751527499873,117.24544911844714 99.02118126279674,116.46963688058895 101.08879837056156,116.81444269906206 101.70468431781046,117.18798165075714 102.87046843173448,119.17059954634169 107.44562118127942,121.49799494788749 108.65539714868646,122.53238402759598" stroke="#4dd2ff" stroke-linecap="round" stroke-linejoin="round" stroke-width="0.5"><title>2019-04-28 10.0km</title></polyline><polyline fill="none" points="152.20000000001164,134.98032432839682 151.84444444440305,135.4641039040289 151.38518518517958,135.36734813076328 151.3259259259794,134.61265066461056 149.56296296295477,130.7036357269826 147.32592592586298,132.13566454274405 146.24444444442634,132.23242268596368 144.39259259263054,131.36159684276208 142.11111111112405,132.6968607854069 140.9703703703708,132.98713376738306 143.65185185184237,137.18634479523462 144.55555555556202,140.45660551534093 145.2370370370336,141.46282327675726 146.17037037032424,141.92722888632852 145.29629629623378,141.40477246064984 144.30370370368473,139.31492607061227 143.25185185181908,139.68258663121378 142.43703703704523,139.5277823094948 141.82962962961756,139.06336825464678 141.3555555556086,137.82492278348946 140.67407407407882,137.34115186413692 139.0296296296292,137.32180099043762 136.24444444448454,138.67635529361723 135.1037037037313,137.30245011391526 133.90370370366145,138.17323674714135 131.85925925930496,137.2637483523722 132.08148148143664,129.00066230774974 131.1777777778334,128.59426767482364 131.50370370369637,118.06627518506139 131.28148148144828,117.27277111368312 129.91851851850515,117.33083254907979 119.79999999998836,120.2145183517423 120.9407407407416,130.00696743963636 126.8074074073811,129.81344781810185 129.50370370375458,129.00066230774974 132.27407407411374,128.74908482542378 132.02222222223645,129.2328872502403 131.90370370371966,135.81242410009145 133.91851851856336,136.16074337656028 134.17037037038244,135.71566858229926 134.7481481481227,135.81242410009145 134.61481481482042,136.62516764816246 135.41481481480878,137.9410275402479 136.34814814815763,138.1345352410426 136.46666666673264,138.52154979135958 136.8222222222248,138.3280426581041 136.7185185184935,138.61830325156916 137.45925925928168,137.90232596598798 138.52592592593282,137.74751955561806 138.8370370370685,137.37985360293533 137.74074074078817,136.7993263285316 137.57777777774027,134.3997864962439 135.77037037035916,132.32918075815542 135.38518518517958,131.32289333856897 135.53333333332557,128.9232539027289 135.96296296291985,128.28463282849407 136.74814814818092,127.99434950013529 136.46666666673264,125.92364322907815 135.68148148147156,124.04643282094912 136.11111111112405,122.74978735404147 137.148148148146,121.97566458171059 137.85925925924676,124.9173069504177 138.9555555555271,125.36241817429254 138.57037037040573,124.56895798850746 138.851851851854,123.65937580697937 140.24444444442634,122.96267032004835 141.68148148147156,123.29167059178872 143.1777777778334,125.13018641872623 146.8666666666977,127.06543855712516 146.8666666666977,128.74908482542378 146.6148148147622,129.34899956815934 145.44444444443798,129.94891158297833 144.15555555553874,131.63252105438733 142.18518518516794,132.73556388657016 140.85185185191222,132.85167312189878 140.21481481485534,131.6905761701928 139.44444444443798,131.2648380609171 138.62962962960592,131.22613452834776 137.1037037037313,131.84538968749985 136.15555555559695,131.51641074610234 135.53333333332557,130.93585767196782 135.41481481480878,129.60057590645738 136.20000000001164,128.28463282849407 146.42222222225973,127.04608617626945" stroke="#4dd2ff" stroke-linecap="round" stroke-linejoin="round" stroke-width="0.5"><title>2018-05-31 10.3km</title></polyline><polyline fill="none" points="188.19999999995343,135.50141803237784 187.73628808860667,135.48187923972728 185.77673130191397,131.00742025423096 184.98393351805862,131.2614328666532 183.5180055401288,132.33609625214012 182.2166204986279,132.37517475735513 180.43656509689754,131.47636623732978 178.28254847647622,132.90273345560126 177.08587257616455,133.156742454099 178.38725761766545,134.93479188228957 179.7634349029977,137.53343682050763 180.1673130193376,139.29188960167812 181.6033240997349,141.9490631022927 180.7806094182306,140.91355326092162 180.25706371187698,139.62403918751806 179.46426592796342,139.95618794535403 178.64155124651734,139.89757351885783 177.83379501383752,139.3114278355497 177.32520775625017,138.02189825460664 176.6520775622921,137.5920522871893 176.35290858725784,137.76789853235823 176.11357340723043,137.51389832586574 175.0664819944068,137.5920522871893 172.35900277009932,138.94020090227423 171.64099722990068,138.41266611238825 171.057617728482,137.49435982840077 169.74127423821483,138.52989624624024 167.85650969523704,137.49435982840077 167.93130193895195,128.91668265944463 165.31357340718387,129.2488581147627 162.74072022153996,130.03044415391923 156.71246537397383,130.06952333553636 155.79999999998836,120.12350177501503 166.49529085867107,117.25093689770438 167.55734072014457,117.38772710616468 167.16842105257092,126.84545231210359 167.36288088641595,129.01438140879327 171.82049861492123,128.48680731121567 171.8354570636875,128.838523608385 172.35900277009932,128.40864800800045 175.1861495844787,128.0373906911991 176.32299168978352,131.74991729843896 174.9019390581525,131.24189345215564 172.9423822714598,131.92577125540993 171.9102493074024,131.53498436915106 171.41662049858132,130.85110455966787 171.58116343489382,129.01438140879327 172.7329639889067,128.05693057576718 172.50858725758735,125.86844568667584 171.7606648199726,124.61786674943869 171.70083102490753,123.6603843147459 172.13462603877997,122.76151699019829 173.09196675894782,121.96034752305422 173.89972299168585,124.91097224128316 174.25872576172696,125.3603994094592 175.0664819944068,125.5362618016079 174.6177285318845,124.59832636035571 174.63268698053434,124.09027523882105 175.0664819944068,123.6603843147459 176.26315789471846,123.09370779502206 177.41495844873134,123.30865434491716 177.9684210526175,123.5822221795388 178.67146814404987,124.79373012193537 179.35955678665778,125.34085912928276 181.99224376730854,126.51327086344827 183.05429362878203,127.29487295349827 182.84487534628715,127.90061141892511 183.00941828254145,128.99484166457842 182.53074792242842,129.69827064761193 181.5135734071955,130.03044415391923 180.06260387809016,131.9062319383229 177.93850415514316,133.000429281572 176.87645429361146,132.92227262655797 175.17119113571243,128.0960103363468 172.79279778391356,128.29140896706667 172.70304709143238,128.07647045748308 172.37396121880738,125.47764103002555 173.85484764544526,124.18797752808314 174.6177285318845,124.12935616314644 176.32299168978352,123.11324840482848 177.65429362870054,123.4063572074665 178.74626038782299,124.85235119448043 179.62880886421772,125.51672154723201 181.94736842106795,126.49373075246694 182.7850415512221,127.13855290239735 184.10138504148927,127.00177270721179 184.78947368415538,127.66613233969838" stroke="#4dd2ff" stroke-linecap="round" stroke-linejoin="round" stroke-width="0.5"><title>2018-05-23 10.0km</title></polyline><polyline fill="none" points="34.46126196254045,176.71442760663922 37.39819921855815,177.73488412838196 38.719820983707905,175.43885360730928 39.16036157216877,163.83095929189585 38.42612725822255,157.26151998137357 36.02762849908322,155.34807250386802 34.41231300844811,156.24101570170023 31.083784118527547,155.6031993178476 25.6015012410935,156.43236043545767 22.615615030983463,154.20000000001164 19.482881958363578,156.24101570170023 17.231230062199757,162.04510205890983 16.888587382156402,183.60246293604723 22.76246189395897,186.15355961123714 29.17477490217425,185.6433414662024 34.118619282962754,186.60000000000582 35.782883727923036,185.19690010114573 38.27928039524704,185.70711876699352 38.670872029382735,184.68668084050296 39.258259480586275,162.42778636544244 38.670872029382735,157.7717712285812 35.92973059066571,155.22050904118805 33.87387451180257,156.17723410512554 31.377477844245732,155.22050904118805 29.321621765149757,155.79454433076899 27.608408365631476,154.83781842971803 24.133032613201067,155.92210762598552 22.909308756468818,154.3275637603947 19.38498404971324,155.9858892596094 17.67177065066062,157.96311529283412 17.03543424489908,163.12937339110067 17.427025879034773,184.94179054533015 22.370870259823278,186.60000000000582 30.8879883014597,186.02600513061043 31.720120524056256,185.13312272616895 36.85976072167978,186.0897823755804 38.76876993780024,184.94179054533015 38.91561680077575,157.83555259244167 33.23753810604103,155.2842907771992 29.860060261795297,155.9858892596094 21.979278625687584,154.90160022160853 18.16126019298099,157.006394134718 16.692791565088555,162.61912839309662 17.329127970617265,184.43157098730444 21.783482808386907,186.02600513061043 25.16096065263264,186.21733683743514 31.52432470675558,185.51578683697153 36.12552640773356,186.28111405452364 38.719820983707905,185.77089605826768 38.81771889212541,184.94179054533015 39.40510634332895,162.4915670506016 38.670872029382735,157.38908284896752 35.782883727923036,155.6031993178476 19.531830912455916,155.7307626690017 17.231230062199757,159.55764590678154 16.692791565088555,163.19315397407627 17.182281107641757,186.15355961123714 31.96486529521644,185.2606774669257 37.496097126975656,185.77089605826768 38.621923075057566,184.94179054533015 38.96456575510092,157.70798985526199 37.545046081300825,156.43236043545767 34.36336405412294,156.3047972889035 31.720120524056256,155.02916377733345 25.01411378988996,156.3047972889035 19.727626729290932,156.24101570170023 18.25915810163133,157.83555259244167 16.839638428064063,167.59399173845304 17.475974833359942,172.88769445111393 16.594893656671047,175.75774745596573 16.888587382156402,185.00556794830482 31.181682027177885,186.28111405452364 38.719820983707905,185.51578683697153 38.52402516664006,169.25226694828598 36.7129138589371,167.72155159310205 32.06276320386678,166.95619190693833 30.643243530066684,167.2750919389655 24.52462424756959,173.97193891045754 23.105104573536664,180.1584588275291 23.93723679613322,185.77089605826768 37.545046081300825,186.21733683743514 39.258259480586275,181.05135138490004 37.39819921855815,178.50022495744633 25.307807515608147,167.9766711909906" stroke="#4dd2ff" stroke-linecap="round" stroke-linejoin="round" stroke-width="0.5"><title>2015-09-13 10.1km</title></polyline><polyline fill="none" points="70.90170697285794,176.536124107457 74.24043886573054,177.3801998544077 75.68556162551977,171.86121408184408 75.28690707101487,157.70632616450894 73.742120672483,154.52466098990408 71.79867972014472,155.6934385932982 70.10439786408097,154.9791859780089 61.035006751772016,155.56357456650585 59.58988399198279,154.65452531943447 55.60333844809793,156.66741758637363 53.211411121999845,165.1084796336363 53.510402037762105,177.70484394652885 52.812756567727774,180.69155849079834 53.111747483490035,185.2365204547823 55.354179351823404,186.47014498521457 74.9380843359977,185.8208693425986 75.48623434803449,159.19975299967336 74.78858887800016,156.8622131293523 72.94481156393886,154.9791859780089 71.64918426214717,155.62850658467505 68.26062055001967,154.20000000001164 59.49022035347298,154.7194574700843 55.20468389382586,157.0570085872605 53.26124294125475,162.12166058379808 52.61342929024249,180.69155849079834 53.16157930297777,184.6521708004293 54.855861159041524,186.3402899323264 57.1979566658847,185.56115882046288 61.63298858352937,186.60000000000582 74.9879161552526,185.8857969493838 75.58589798677713,157.51153099079966 74.1906070462428,155.6934385932982 69.05792965856381,154.4597288108198 59.19122943771072,154.52466098990408 56.89896574988961,154.91425386507763 55.10502025531605,156.53755384369288 53.36090657976456,159.32961596589303 52.66326110973023,163.16055643832078 52.26460655545816,168.54978979041334 53.16157930297777,176.01669208335807 52.41410201322287,179.39298941078596 53.311074760509655,185.3014481467544 54.60670206230134,185.95072454673937 75.08757979376242,186.14550728199538 75.73539344477467,163.2254873487691 75.23707525175996,157.38166749425 73.54279339569621,155.82330258222646 66.26734777796082,156.3427581587166 59.04173397971317,155.56357456650585 55.60333844809793,157.44659924705047 53.85922477254644,159.9789302298159 53.111747483490035,164.06958832303644 52.41410201322287,179.52284648930072 53.0619156640023,183.67825300624827 57.84577031689696,185.95072454673937 75.58589798677713,186.47014498521457 75.53606616752222,160.04386160406284 74.83842069748789,156.9271449582011 70.45322059933096,155.82330258222646 68.50977964652702,156.7972812912194 55.254515713313594,156.27782624488464 53.46057021827437,159.39454743481474 52.36427019396797,171.146987395623 53.0619156640023,179.7176320356666 53.809392953524366,180.49677337004687 52.812756567727774,185.3014481467544 61.83231586054899,186.27536239181063 75.53606616752222,185.49623116618022 75.28690707101487,168.80951023258967 72.24716609390453,166.86160322485375 69.307088755304,167.57583678353694 61.88214767980389,173.41952287606546 60.18786582374014,179.78256053233054 60.78584765526466,185.04173732193885 72.39666155166924,186.08057971310336 74.78858887800016,185.3663758293842 75.18724343250506,183.4185412347142 74.8882525167428,178.61384614542476 66.71583415172063,173.87402858081623 65.61953412741423,171.66642509930534 61.73265222180635,168.61471991511644" stroke="#4dd2ff" stroke-linecap="round" stroke-linejoin="round" stroke-width="0.5"><title>2015-09-07 10.0km</title></polyline><polyline fill="none" points="106.57071666396223,175.46078201400815 109.94156759185717,176.41558326236554 110.72321418393403,174.44232504742104 110.67436127178371,156.80991221958539 107.84089237591252,154.96387836206122 90.84007900045253,155.4731298610859 89.47219746443443,157.95572241200716 89.91187367239036,177.0521162681107 88.98366834432818,179.66189188955468 89.7164620240219,183.4173952875426 94.6506061363034,184.88139633642277 100.26869101612829,184.75409209242207 102.56477787997574,186.02713286396465 110.23468506382778,185.07235263320035 111.11403747973964,173.5511732531304 110.47894962388091,156.55528732395032 103.1998657360673,154.96387836206122 90.15613823197782,155.7277553876629 88.98366834432818,182.1443469072983 89.61875620018691,184.81774421909358 100.46410266403109,185.19965678465087 103.10215991223231,186.60000000000582 110.918625831604,185.13600471362588 111.16289039188996,157.8920663689496 108.72024479182437,154.45462626914377 106.57071666396223,155.28216061851708 99.34048568806611,154.5182828133111 96.84898717608303,155.21850418584654 94.94372360827401,154.39096971577965 91.0354906481225,155.66409901995212 89.56990328826942,157.8920663689496 89.91187367239036,169.73193067559623 88.64169796020724,181.8897367856116 89.6676091121044,184.43583131948253 91.23090229625814,185.13600471362588 101.49001381592825,185.13600471362588 106.57071666396223,186.4090443716268 110.96747874375433,184.94504844470066 111.3094491281081,161.83872347947909 110.43009671196342,156.42797482057358 108.08515693596564,154.7092523900501 105.93562880787067,155.6004426430154 94.69945904822089,154.39096971577965 91.42631394392811,155.6004426430154 89.76531493617222,158.01937844554777 89.13022708031349,164.5122451237985 89.61875620018691,184.05391808584682 92.30566636007279,185.70887301885523 109.84386176778935,184.88139633642277 110.82092000776902,183.67200451827375 111.3094491281081,179.08901565038832 110.918625831604,156.1733497020614 108.47598023200408,154.5182828133111 97.33751629618928,154.96387836206122 94.69945904822089,154.19999999998254 91.86599015211686,155.21850418584654 89.76531493617222,158.6559382713458 88.88596252026036,167.94960603976506 89.7164620240219,176.92480974117643 89.22793290414847,184.18122253427282 91.23090229625814,185.19965678465087 110.57665544794872,184.75409209242207 111.35830203979276,182.5899142625276 111.01633165590465,168.14056974169216 106.96153996000066,165.9763095630915 104.71430600807071,166.42189341795165 96.75128135201521,173.80578823710675 95.52995855221525,177.17942275790847 95.48110564006492,184.24487474447233 96.84898717608303,185.00870054366533 110.43009671196342,184.43583131948253 110.72321418393403,177.1157695177826 106.71727539994754,175.77904932879028 98.65654491982423,168.2678788297344" stroke="#4dd2ff" stroke-linecap="round" stroke-linejoin="round" stroke-width="0.5"><title>2015-09-03 10.1km</title></polyline><polyline fill="none" points="142.3627965329215,176.18143924706965 145.58076259563677,176.9437814069388 146.21460439567454,175.48262442889973 146.5559038266074,156.86832632386358 140.31499994779006,155.85182298431755 126.07793797343038,155.59769677891745 125.0052826195024,164.80967703592614 125.63912441954017,178.59551817830652 124.66398318856955,181.2001672894694 125.59036735794507,184.63065699810977 130.2710452673491,186.15531042270595 136.41443502320908,184.56712965629413 138.41347454697825,185.90120188897708 146.65341794979759,185.90120188897708 146.89720325754024,174.33910685460432 146.65341794979759,158.01188974638353 145.9708190879319,156.29654348714394 125.88290972728282,156.0424175412045 125.39533911179751,173.5132311846828 131.14867237512954,175.863796286867 131.73375711403787,183.4871634292067 130.46607351349667,181.83544519898714 132.80641246796586,184.88476627267664 142.11901122517884,186.60000000000582 146.5071467650123,185.5835660135781 147.0922315036878,169.19324063530075 146.84844619594514,159.28251225152053 145.62951965699904,156.48713784952997 140.55878525529988,155.21650719290483 127.00432214327157,155.7882914468937 125.24906792701222,158.96485697265598 125.78539560432546,168.17676604664302 124.9077684963122,174.72027971287025 125.68788148113526,177.38848038433935 125.78539560432546,184.63065699810977 133.00144071434624,186.28236463377834 135.78059322293848,185.52003881082055 145.09319197991863,185.90120188897708 146.6046608882025,185.01182085438631 146.9947173804976,183.42363592074253 147.18974562664516,162.96729656428215 146.45838970365003,157.8212960510864 144.70313548739068,156.423606404569 139.77867227047682,155.53416520438623 130.61234469804913,154.96238061695476 126.66302271233872,155.97888603140018 125.05403968109749,160.6801927277993 125.98042385047302,184.3130201967142 128.71081929747015,185.39298437710386 136.02437853091396,185.01182085438631 138.46223160857335,186.34589172559208 146.26336145726964,185.5835660135781 147.33601681166328,164.1108439809177 146.65341794979759,157.63070227240678 144.55686430283822,155.53416520438623 132.95268365298398,155.72475990024395 130.8561300060246,154.20000000001164 126.80929389689118,156.423606404569 125.93166678911075,157.8212960510864 125.10279674245976,164.36496522146626 125.63912441954017,184.88476627267664 127.93070631264709,186.409418808209 136.07313559227623,185.20240265750908 144.70313548739068,185.77414756661165 146.84844619594514,185.1388753990759 146.84844619594514,168.24029577788315 142.11901122517884,165.76262939570006 139.2911016549915,168.74853329456528 134.12285313010216,171.86147514919867 131.92878536018543,174.72027971287025 131.09991531376727,178.34140523633687 131.14867237512954,183.99538316365215 131.83127123722807,184.94829356812988 144.65437842602842,185.52003881082055 146.45838970365003,183.99538316365215 146.79968913435005,179.29432800450013 145.72703378018923,177.0708383039746 142.8503671484068,175.80026766698575 134.22036725329235,168.49441461029346" stroke="#4dd2ff" stroke-linecap="round" stroke-linejoin="round" stroke-width="0.5"><title>2015-08-28 10.1km</title></polyline><polyline fill="none" points="179.30780781130306,176.0558841690363 181.6620009317994,176.5032154469518 182.79005180182867,175.09731560765067 183.13337163208053,157.58709434146294 182.20150352199562,154.90298399707535 177.1988431410864,154.20000000001164 162.09277061815374,154.96689157717628 161.35708526801318,155.8615967212536 162.09277061815374,166.47010422559106 161.160902507836,175.1612202436081 161.7494507881347,183.34093673355528 169.4496241195593,184.68290689541027 182.05436645192094,184.23558396458975 183.2805087021552,169.921009154059 182.39768628193997,155.41424437751994 178.27784832124598,154.6473535830155 162.97559303813614,154.83907640748657 161.55326802795753,157.1397437590349 160.7685369879473,162.63573355189874 161.65135940816253,184.29948726829025 181.6620009317994,184.23558396458975 182.74100611219183,177.4617809339834 180.53395006177016,177.5895895070571 182.6919604218565,175.0334109622927 183.03528025210835,167.10916274346528 182.98623456200585,157.58709434146294 182.05436645192094,155.41424437751994 161.94563354784623,155.22252180456417 160.7194912978448,161.99666851203074 161.40613095811568,167.6843146129977 160.7685369879473,178.8037690940546 161.55326802795753,184.29948726829025 174.84465002035722,185.70535759461927 175.82556382054463,184.87461658302345 181.46581817185506,184.74681013388908 182.49577766214497,182.7019018791325 182.34864059183747,155.79768927156692 181.46581817185506,155.03079914793489 165.4278775388375,154.39172302006045 161.84754216810688,155.22252180456417 161.160902507836,157.45927993603982 161.7494507881347,183.1492263749824 167.88016203930601,185.1302293697372 174.30514743039384,185.19413254293613 176.61029486102052,186.60000000000582 182.2505492118653,185.06632618705044 183.08432594221085,159.6960266532551 182.44673197204247,155.73378181245062 180.87726989155635,154.96689157717628 161.55326802795753,155.54205937930965 160.8175826780498,158.60960824484937 161.84754216810688,167.4925974070793 161.45517664798535,182.57409479652415 167.73302496923134,185.06632618705044 172.14713706984185,184.61900364756002 177.83643711125478,185.57755138757057 182.98623456200585,184.81071336308378 182.83909749193117,168.19556008576183 180.09253885154612,166.0866686674999 176.95361469080672,165.3197965452273 168.76298445928842,172.66893253734452 167.24256806913763,178.29253599379444 168.02729910914786,183.40484016778646 172.73568535014056,185.19413254293613 178.6702138413675,185.89706683519762 182.15245783189312,184.49119712383253 182.54482335201465,181.4238293756789 182.34864059183747,177.33397232345305 176.1688836507965,172.54112252939376 173.17709656013176,168.77071052975953 169.84198963968083,166.91744528591516" stroke="#4dd2ff" stroke-linecap="round" stroke-linejoin="round" stroke-width="0.5"><title>2015-08-20 10.1km</title></polyline><polyline fill="none" points="34.721244615735486,216.55749328742968 37.57715807855129,217.32738423126284 39.10359458485618,215.14602305873996 39.44827379565686,203.08418373734457 38.61119571165182,196.73233758902643 36.29692100919783,195.57744662076584 31.126732843229547,195.0 21.820394144626334,196.28321368372417 19.013720568967983,195.51328592249774 17.881203161086887,197.30978193655028 17.19184473901987,203.66161975017167 17.53652395005338,224.256342118897 20.737116624368355,225.86025200699805 28.61549859121442,225.73193943104707 32.85012889839709,226.56597050570417 38.66043559927493,225.86025200699805 39.15283447201364,224.44881161424564 39.00511481007561,196.60401651993743 37.52791819139384,195.8982499714184 20.14623797661625,195.51328592249774 18.521321695763618,195.96241061363253 17.487284062895924,198.84962982553407 17.53652395005338,213.15712550730677 18.81676101963967,214.50444418541156 23.248350875917822,215.33849653819925 23.986949185607955,220.1503061693511 23.59303008718416,222.26748573992518 22.608232341473922,222.71658312730142 24.233148622093722,222.65242638558266 24.57782783312723,221.6259172486025 23.83922952366993,223.16568005629233 24.13466884754598,225.60362681752304 37.82335751526989,225.73193943104707 39.300554133951664,223.1015233801736 39.59599345782772,201.41603100011707 38.51271593733691,196.15489248369704 35.164403601083905,195.3208037717268 18.472081808606163,195.8340893200657 17.142604851629585,200.45363231337979 17.585763837210834,225.66778312897077 21.131035722559318,226.56597050570417 29.058657576795667,225.026219594758 33.539487320696935,226.43765813551727 37.872597402427346,226.11687704647193 39.20207435940392,223.29399338038638 39.54675357043743,207.3828558792884 39.10359458485618,197.6947444139223 38.217276613460854,195.8982499714184 18.078162709949538,195.96241061363253 17.09336496447213,198.0797065545048 17.53652395005338,225.4111578275042 28.517018816433847,224.8979067756154 30.585094082867727,226.43765813551727 31.96381092700176,226.50181432522368 32.653169349301606,225.47531416694983 38.36499627539888,226.05272080056602 39.25131424656138,223.87140287601505 39.00511481007561,219.25210569854244 37.330958642065525,218.2255886303319 38.75891537358984,216.04423190990929 39.59599345782772,208.92266852167086 39.74371311953291,203.7899387611542 38.56195582449436,197.75890479405643 36.98627943126485,196.34737426959327 32.899368785787374,195.70576798912953 18.81676101963967,195.8982499714184 16.502486316952854,199.234590955748 18.028922823024914,201.35187115287408 16.797925640596077,203.7257792603923 16.256286880467087,211.03990210744087 17.241084626177326,225.7960957236064 18.61980147054419,225.34700147877447 20.88483628607355,226.69428283849265 27.975380056304857,225.5394704969367 29.69877611170523,226.82259513388271 34.03188619343564,227.39999999999418 39.15283447201364,225.86025200699805 39.54675357043743,209.30762084043818 38.315756388241425,207.83196845653583 34.03188619343564,206.86958380124997 32.899368785787374,206.93374284380116 24.873267156770453,214.05533841773286 23.05139132682234,220.4710916072945 24.183908734703436,225.4111578275042 34.13036596798338,226.88675126750604 38.414236162789166,225.5394704969367 39.15283447201364,223.67893312836532 38.80815526098013,218.86716207841528 31.717611490515992,213.6062321915815 25.858064902713522,207.70365062411292" stroke="#4dd2ff" stroke-linecap="round" stroke-linejoin="round" stroke-width="0.5"><title>2015-08-17 10.3km</title></polyline><polyline fill="none" points="70.84719782229513,216.80149332582369 73.9876419364009,217.87477093323832 75.42915726732463,215.86237336540944 75.22322650556453,196.27457727189176 69.66309594316408,195.1341661947954 54.16680613486096,195.33541541386512 52.004533138358966,206.5381497690105 53.08566963672638,224.78393560109544 56.89538872567937,226.46090167068178 68.17009792197496,227.13168638714706 74.65691691124812,226.25966606495786 75.37767457705922,223.4423583453463 75.6865707191173,202.11075441812864 74.96581305377185,195.60374756879173 73.7302284843754,195.0 54.06384075433016,195.20124927759753 52.776773494435474,198.82372122313245 52.416394661646336,225.32056540841586 56.432044512126595,226.5279801862489 64.87520573684014,226.19258751024609 67.29489218513481,227.1987648048671 75.37767457705922,226.12550894566812 75.73805340961553,202.11075441812864 74.91433036350645,195.67083058317075 53.85790999257006,195.0670831022726 52.87973887496628,196.81124033004744 52.3649119711481,202.31200058574905 53.34308308851905,225.119329304056 66.88303066184744,226.79629415099043 74.14209000766277,226.19258751024609 75.17174381553195,225.85719458959647 75.841018790612,223.37527937977575 75.99546686164103,202.44616464851424 74.96581305377185,196.0062455080042 73.7302284843754,195.1341661947954 53.65197923104279,195.46958151098806 52.570842732908204,196.4758259920054 52.416394661646336,200.6349465008243 52.72529080393724,225.38764409019495 59.98435014928691,226.59505869221175 74.60543422121555,226.5279801862489 75.6865707191173,211.50214844115544 75.01729574427009,196.0733284635644 53.90939268306829,195.33541541386512 52.87973887496628,196.3416601884819 52.210463899886236,200.5007819099701 52.67380811343901,216.80149332582369 53.600496540777385,220.15547753716237 53.08566963672638,225.9242731933191 59.623971316730604,226.6621371882793 64.72075766557828,225.58888007726637 65.85337685397826,226.5279801862489 67.80971908918582,225.79011597621138 70.22940553771332,226.93045107493526 74.96581305377185,225.85719458959647 75.9439841711428,213.98412769450806 75.12026112480089,208.34934467900894 74.34802076895721,207.54437004373176 68.78789020655677,206.94063814301626 62.507001978578046,211.16674481253722 59.98435014928691,214.0512080291519 59.263592483708635,224.9851718521095 64.30889614252374,225.9242731933191 66.31672106776386,227.1987648048671 68.1186152312439,226.46090167068178 69.50864787213504,227.39999999999418 74.34802076895721,226.93045107493526 75.06877843453549,219.55176218334236 70.69274975103326,216.60025349556236 62.301071216817945,208.5505881177378" stroke="#4dd2ff" stroke-linecap="round" stroke-linejoin="round" stroke-width="0.5"><title>2015-08-13 10.0km</title></polyline><polyline fill="none" points="106.84573330893181,217.69336222857237 110.82229898124933,216.90632836555596 111.72835191921331,203.329777496343 110.82229898124933,196.50855381853762 103.12084900843911,195.26235754939262 91.291824540589,195.91825075287488 89.832072584657,196.7053213348845 89.02669219532982,199.00093600028777 88.52332945214584,218.74273857069784 89.27837356715463,225.56362513263593 105.58732645073906,227.20324590828386 110.06725486647338,226.41622868177365 111.17465290147811,224.31750934675802 111.52700682193972,202.149188492127 110.67129015852697,196.3117862159561 102.91950391116552,195.131178793672 100.25168137135915,195.8526614755392 91.99653238104656,195.0 90.18442650511861,195.78707218868658 88.92601964669302,201.09977344292565 88.82534709805623,220.90706954622874 89.07702846964821,224.3830944741785 91.64417846058495,225.76037994137732 106.89606958348304,227.39999999999418 111.32566172466613,225.89154976583086 111.47667054762132,202.608306806389 111.22498917602934,197.16444520512596 110.36927251215093,196.11501852763467 90.18442650511861,195.9838400205772 88.37232062895782,199.9847672706528 89.32870984147303,206.47799969429616 88.27164808055386,216.05370679372572 89.27837356715463,223.5304870721302 91.59384218626656,225.4980401772773 103.07051273435354,226.8097374670906 110.92297153011896,226.48181350334198 111.32566172466613,200.18153326652828 111.02364407852292,197.23003429124947 109.36254702578299,195.8526614755392 89.53005493874662,196.1806077666406 88.42265690350905,215.46342937400914 88.57366572623141,223.92399838153506 89.27837356715463,224.64543488819618 96.47646079654805,226.48181350334198 110.82229898124933,225.56362513263593 111.62767937057652,201.75565813545836 111.02364407852292,196.90208876520046 109.91624604328535,196.11501852763467 104.22824704367667,195.65589358622674 90.33543532784097,196.04942927890806 88.92601964669302,197.42680149208172 88.37232062895782,201.6244812736404 89.12736474419944,225.69479501462774 94.41267354902811,226.6785679103632 100.95638921228237,225.76037994137732 102.61748626525514,226.8097374670906 110.62095388397574,226.28505901017343 111.57734309649095,224.18633906310424 111.17465290147811,209.23267604442663 110.21826368942857,208.3144524685631 104.47992841550149,207.39622701855842 98.942938238848,211.39705277231405 95.82208923017606,214.93873768436606 95.57040785858408,225.36687023815466 106.29203429142945,226.94090698595392 110.77196270693094,226.21947416011244 110.82229898124933,219.26742582398583 106.99674213211983,217.43101776047843 97.43285000883043,208.70797708781902" stroke="#4dd2ff" stroke-linecap="round" stroke-linejoin="round" stroke-width="0.5"><title>2015-08-10 10.0km</title></polyline><polyline fill="none" points="142.30515795806423,217.83201321642264 146.25537740136497,217.89800002492848 147.16696650371887,216.1163528226025 147.62276105489582,202.3908355514577 146.66052811336704,195.98985104667372 139.16523993876763,195.0 131.21415721275844,196.05584103937144 125.84591027675197,195.65990093824803 124.88367733545601,197.04568977688905 124.32659510616213,203.84259263891727 124.93432117439806,225.3544474093651 127.31458160816692,226.54218874863 145.90087052830495,226.60817428733571 147.11632266477682,224.4306464351248 147.72404873301275,207.80190648284042 146.7618157917168,196.25381095998455 138.9120207435917,195.1319802646176 125.89655411569402,195.92386104431353 124.7317458181642,199.48730740669998 124.32659510616213,218.55786757933674 124.7317458181642,225.3544474093651 132.6828285441734,226.93810183595633 140.4819797531236,227.26802914383006 146.8631034696009,226.27824649811373 147.47082953806967,201.53297690185718 146.05280204536393,195.85787103217444 133.64506148570217,195.0 125.99784179357812,195.85787103217444 124.47852662322111,199.35532841205713 124.42788278404623,222.25310810742667 124.57981430110522,225.02451870625373 126.30170482769608,226.34423207506188 135.97467808052897,226.2122609115031 142.5583771530073,227.39999999999418 146.8631034696009,226.1462753151718 147.62276105489582,207.6039416132553 147.21761034289375,197.30964907453745 146.15408972324803,195.92386104431353 133.29055461264215,195.46193075782503 126.30170482769608,196.18782099612872 124.42788278404623,203.11671467710403 125.035608852515,218.68984097481007 124.37723894533701,223.44085758473375 128.73260910087265,226.7401453355269 146.8631034696009,226.54218874863 147.62276105489582,203.77660378141445 147.01503498665988,197.24365926458267 144.93863758677617,195.85787103217444 125.94719795463607,195.7918810103729 124.83303349651396,196.6497505416628 124.27595126698725,202.78676976417773 124.93432117439806,225.61839019850595 128.6819652619306,227.20204370148713 135.72145888535306,226.01430409381283 138.1523631582968,226.87211634530104 146.81245963042602,225.94831846855232 146.8631034696009,209.58358641338418 144.22962384065613,207.7359182026412 140.0768290408887,207.20801161415875 137.08884253911674,209.05568197995308 131.77123944205232,214.66463510211906 131.31544489064254,225.81634718936402 145.34378829901107,226.27824649811373 146.964391147485,223.70480148968636 146.964391147485,218.88780099578435 142.81159634818323,217.10615768955904 137.29141789488494,211.16729601920815 133.23991077346727,208.3298123786226" stroke="#4dd2ff" stroke-linecap="round" stroke-linejoin="round" stroke-width="0.5"><title>2015-08-06 10.1km</title></polyline><polyline fill="none" points="178.67933524702676,216.90448241776903 181.8313810939435,217.03486302917008 183.48245272808708,212.47151900889003 182.9821279903408,196.17348161782138 174.7267698198557,195.06519350386225 162.01852148468606,195.65193461230956 160.86777458828874,197.02099420450395 160.467514798278,204.97449558918015 160.76770964078605,224.98800844312063 168.32261317875236,226.5525449894485 181.9814785150811,225.70508837306988 183.2823228330817,217.295624138118 182.83203056897037,195.97790156208794 181.1809589350596,195.3259674248984 162.31871632742696,195.717128021206 160.96783953602426,198.5856286053604 160.2673849032726,209.01638470063335 160.96783953602426,225.05319757509278 169.07310028467327,226.0962223955721 182.03151098894887,225.9006554269581 183.58251767558977,210.71135958415107 182.68193314783275,205.69160761355306 183.13222541171126,196.62983474871726 182.23164088395424,195.717128021206 171.07439923542552,195.0 162.31871632742696,195.58674119383795 160.467514798278,203.93142150036874 160.9178070621565,225.24876491431496 176.42787392786704,227.39999999999418 183.13222541171126,225.9006554269581 183.73261509696022,225.05319757509278 182.83203056897037,222.901951199834 183.53248520195484,198.45524261458195 181.5311862512026,196.04309492348693 174.77680229395628,195.26077395884204 163.3693982763216,195.5215477658785 161.56822922104038,196.62983474871726 160.56757974554785,205.75679955884698 160.86777458828874,225.1183866976935 177.67868577176705,226.81330054823775 182.58186820033006,225.83546641856083 183.13222541171126,224.0753595966671 182.88206304307096,206.14795103057986 183.73261509696022,203.27949895936763 182.9821279903408,196.89060775726102 180.98082904005423,195.8475148108264 174.57667239871807,195.3259674248984 171.42462655180134,196.04309492348693 164.01982043520547,195.39116088140872 161.86842406354845,196.23867495087325 160.76770964078605,199.88948642413015 160.86777458828874,225.83546641856083 177.87881566700526,227.39999999999418 182.38173830509186,226.29178927856265 183.33235530694947,218.07790655238205 183.03216046420857,210.32021210435778 180.43047182867303,207.84293678688118 177.77875071950257,207.45178679810488 175.2771270312369,207.84293678688118 170.92430181405507,210.71135958415107 168.02241833601147,214.29686220531585 167.67219101986848,225.7702774006175 175.3771919789724,226.81330054823775 181.93144604144618,226.16141136619262 183.08219293807633,223.2278982855787 182.83203056897037,218.86018759815488 179.02956256316975,216.83929209774942 173.12573065957986,210.58097712884774 169.92365233879536,208.82081026228843" stroke="#4dd2ff" stroke-linecap="round" stroke-linejoin="round" stroke-width="0.5"><title>2015-08-03 10.1km</title></polyline><polyline fill="none" points="35.350370411295444,258.079487261537 38.478187607601285,258.2832581429393 39.98996591917239,254.47952032843023 39.72931448626332,237.56609579728683 37.69623330840841,235.9358537606313 17.052639812929556,236.13963432711898 16.16642494057305,239.12840572957066 15.749382647685707,251.62669658855884 15.90577350743115,264.1925749366346 16.63559752004221,265.68687305809 23.82957707135938,267.4528555685247 38.113275601528585,267.3849332879181 39.312272193375975,265.14349247753853 40.25061735231429,251.49084740306716 39.20801162044518,235.9358537606313 17.10477009951137,236.13963432711898 15.90577350743115,248.16252999115386 16.479206660063937,265.5510279723385 24.090228504501283,267.3849332879181 38.4260573212523,267.04532173709595 40.146356779150665,260.3888853653334 39.15588133363053,236.20756116273697 16.896248952951282,236.00378062593518 16.114294653758407,245.3775930693082 16.583467233460397,266.16233054632903 25.393485669745132,267.79246682237135 38.478187607601285,267.860389043286 39.677184199681506,266.16233054632903 39.98996591917239,251.69462116615614 39.15588133363053,246.32854901181418 39.572923626285046,237.0906091259094 38.5303178941831,236.07170748143108 17.886724398471415,235.9358537606313 16.687727806391194,238.17743509059073 16.010034080594778,248.6380053628236 16.37494608690031,265.95856311082025 25.289225096348673,267.860389043286 34.047113246051595,268.20000000001164 38.478187607601285,267.52077783906134 39.52079333970323,265.27933768212097 39.62505391309969,236.954755702056 37.22706072893925,235.80000000001746 19.13785127690062,235.80000000001746 17.10477009951137,236.954755702056 16.583467233460397,239.06047931991634 16.27068551373668,266.0944080777117 21.327323314500973,267.4528555685247 38.32179674785584,267.7245445912122 39.572923626285046,264.60011126325116 39.677184199681506,249.65687952534063 37.644103022059426,247.82290442843805 33.16089837369509,246.66817566374084 27.218045700807124,251.0153749427991 24.246619364479557,254.81914103889721 23.20401363214478,261.7473494912265 23.881707358174026,266.29817545364494 32.79598636762239,267.92831125453813 38.5303178941831,267.6566223503323 39.572923626285046,266.6377875492035 39.46866305335425,259.8454986062716 26.123309682356194,248.8417803735938" stroke="#4dd2ff" stroke-linecap="round" stroke-linejoin="round" stroke-width="0.5"><title>2015-07-28 10.0km</title></polyline><polyline fill="none" points="70.82212872221135,257.44320581061766 74.8758573832456,258.0229199582536 75.27134310617112,256.8634909023531 75.27134310617112,242.49920080933953 74.13432165258564,236.18649511566036 65.08758573839441,236.83065289020305 53.61849977099337,236.1220792865206 52.62978546321392,262.7250177177775 53.51962833991274,265.68795772842714 58.8092498856131,267.29824287910014 65.48307146155275,265.3014884189761 71.76140731433406,267.04059764926205 73.88714307569899,266.5253067390877 75.17247167532332,264.4641370891768 75.46908596763387,257.8296819936659 74.52980737551115,248.8118163072795 75.0241645295173,238.56987419060897 74.2826287986245,236.5085741203511 65.58194289240055,236.76623715512687 63.90112856938504,235.80000000001746 53.61849977099337,236.76623715512687 52.580349747790024,243.6586675606959 52.38260688632727,262.66060575740994 53.766806916799396,267.68471044200123 56.732949839672074,268.20000000001164 66.02686433051713,266.2676610587223 72.84899305272847,267.1694202829385 75.12303596013226,263.75560780102387 75.46908596763387,242.95010490750428 74.67811452155001,237.53922535758466 67.41106436122209,236.44415833827225 54.261164070805535,236.70182141041732 52.728656894061714,239.14961310237413 53.173578332411125,265.8811922564055 73.88714307569899,266.58971813574317 75.07360024470836,263.36913680145517 74.97472881386057,237.34597843379015 73.44222163734958,236.37974254679284 57.96884272410534,236.1220792865206 53.964549778494984,236.5085741203511 52.876964040100574,238.31221220758744 52.48147831717506,262.5961937881366 53.22301404806785,265.23707683448447 59.946271339198574,266.5253067390877 68.94357153796591,265.7523692472605 71.069307299098,266.3964839178079 73.73883592966013,266.0100152280356 74.8758573832456,263.884431392391 75.5185216832906,260.0841196565889 74.72755023720674,237.66805659321835 73.73883592966013,236.5085741203511 56.63407840882428,236.44415833827225 53.915114062838256,236.76623715512687 52.77809260948561,239.2140284901543 52.77809260948561,265.23707683448447 60.391192777547985,266.2676610587223 73.04673591442406,266.0744266996917 74.62867880659178,265.36589999409625 75.61739311390556,258.15174522117013 74.67811452155001,249.9068526730698 68.99300725315697,247.84560549561866 62.714671400375664,251.58160892385058 60.539499923819676,254.22255780588603 59.25417132396251,262.5961937881366 58.31489273183979,262.66060575740994 59.946271339198574,266.0100152280356 74.57924309093505,266.2676610587223 75.12303596013226,260.0197073116142 67.8065500841476,255.44640681319288 63.11015712330118,250.80864528927486" stroke="#4dd2ff" stroke-linecap="round" stroke-linejoin="round" stroke-width="0.5"><title>2015-07-23 10.1km</title></polyline><polyline fill="none" points="106.71642019436695,257.9792164286482 110.15153586654924,258.78085475147236 111.17694352986291,257.24438006730634 111.84345851116814,243.2822652955947 110.97186199715361,237.40335284918547 108.86977628758177,235.80000000001746 101.38430034555495,236.8020961881848 90.20735681569204,236.13403230629046 88.7205157042481,238.07141488045454 88.7205157042481,266.7971608504886 96.71869547781534,268.20000000001164 111.12567314668559,266.93076476396527 111.79218812775798,248.09222846766352 111.12567314668559,237.73738398659043 110.15153586654924,236.6684834896878 88.87432685354725,236.8020961881848 88.05400072294287,243.6830974885379 88.25908225565217,265.7951302569709 93.79628363717347,267.9995946699637 98.46188850537874,267.3315762708662 107.8956390072126,267.86599106818903 110.56169893196784,266.32954684610013 111.99726966046728,246.88974240841344 110.92059161420912,237.13612776389346 109.22866896959022,236.4680643689935 92.1043609927874,236.2008387382375 88.82305647060275,237.3365465925308 88.00273033976555,262.9894329390372 89.13067876943387,265.8619323647581 93.12976865610108,267.06436863853014 110.86932123079896,266.7303588789946 111.58710659504868,258.38003576532356 111.17694352986291,237.67057777862647 108.56215398828499,236.13403230629046 88.41289340518415,236.7352898439276 88.1052711061202,262.254604612157 88.41289340518415,266.062338629592 89.69465298438445,266.5967549069901 95.69328781450167,267.59878374732216 110.45915816561319,266.93076476396527 111.4332954455167,258.0460196756758 111.38202506257221,241.21129338030005 111.2282139128074,237.2029340499139 109.43375050206669,236.2008387382375 89.28448991873302,236.7352898439276 88.05400072294287,244.2843451203953 88.25908225565217,266.2627448065032 95.02677283319645,267.3315762708662 111.17694352986291,266.93076476396527 111.2282139128074,249.4951248820871 104.51179371867329,247.82500961617916 102.61478954134509,248.6934703142033 95.5394766649697,255.6410966430849 94.97550245025195,260.1169155064272 95.5394766649697,266.5299529064796 105.43466061539948,267.59878374732216 110.71551008126698,267.1979724741541 110.97186199715361,266.5299529064796 110.92059161420912,259.7160976890882 105.2808494658675,256.50954252752126 98.15426620631479,249.4951248820871" stroke="#4dd2ff" stroke-linecap="round" stroke-linejoin="round" stroke-width="0.5"><title>2015-07-20 10.0km</title></polyline><polyline fill="none" points="143.41623216797598,256.3265970821958 145.54900481761433,257.4634263420012 146.76080745947547,256.5792260643793 147.43941693892702,241.35806692607002 146.51844693091698,237.00004321354209 140.2655452992767,236.24212157086004 126.30557886511087,236.4947622656764 125.57849727990106,237.6948035545356 125.57849727990106,264.1580270291015 127.66279782378115,264.4106514446903 129.89251468516886,266.368485670042 132.3161199686583,267.0631989133544 141.23498741257936,267.00004321010783 144.19178585871123,266.2421740513237 145.54900481761433,265.2316797776439 147.00316798803397,260.1160163472232 147.39094483316876,251.7160922792391 146.61539114220068,245.0212993201858 147.10011219908483,237.6316435696499 146.46997482539155,237.00004321354209 139.87776845367625,235.80000000001746 126.11169044231065,236.43160210570204 124.94835990597494,245.9686819667986 125.77238570270129,250.64240603454527 124.99683201196603,255.1897648391605 126.01474623079412,257.3371121271048 125.82085780822672,263.84224630260724 127.61432571825571,265.8000830965757 131.54056627769023,266.6842645551951 137.26027474738657,266.11586239616736 143.22234374517575,266.8737317757914 146.3245585085824,265.8632389749109 147.05164009332657,238.9580013199011 146.27608640282415,236.43160210570204 132.51000839145854,235.98948072839994 126.40252307639457,236.93688312734594 125.38460885710083,240.5369933466136 125.82085780822672,248.05291649652645 124.99683201196603,256.0739679525723 125.91780201974325,258.1581538655737 125.96627412526868,265.0422118389688 127.08113255584612,266.4316414653731 129.50473783933558,267.2526659684081 137.35721895867027,266.7474203046004 142.49526216019876,268.073688915465 144.19178585871123,268.0105333593092 145.30664428928867,266.6842645551951 146.56691903690808,257.02132642883225 146.8092795650009,239.21064043109072 145.88830955745652,236.81056292715948 143.94942533038557,236.05264095281018 139.5384637140669,236.7474028133729 135.80611157719977,235.98948072839994 125.53002517414279,236.62108255794737 125.19072043453343,256.5792260643793 125.91780201974325,258.41078177976306 125.77238570270129,260.93705281897564 124.56058306084014,262.32649561134167 124.60905516659841,266.1790182282857 128.19599098619074,268.0105333593092 135.46680683735758,265.73692720913095 138.6659658118151,266.8737317757914 141.96206899755634,265.61061540659284 143.56164848501794,267.0631989133544 145.83983745169826,266.11586239616736 146.76080745947547,256.20028253583587 146.61539114220068,240.78963153681252 146.37303061387502,237.75796353034093 144.62803480983712,236.24212157086004 136.09694421105087,236.7474028133729 134.4004205125384,235.9263204948511 126.6933557104785,236.36844193658908 125.43308096309192,237.1895234171243 124.56058306084014,256.20028253583587 125.0937762230169,264.09487090216135 128.19599098619074,268.20000000001164 128.53529572603293,266.7474203046004 136.04847210552543,265.2316797776439 136.92097000754438,266.1790182282857 139.78082424239255,265.8000830965757 142.93151111109182,266.81057604480884 145.83983745169826,265.92639484416577 146.8092795650009,257.0844835868629 146.22761429683305,248.05291649652645 140.6533221444115,247.04237979490426 137.21180264186114,248.8739758306765 132.3161199686583,254.17924478539499 131.20126153808087,257.96868283321965 131.68598259496503,265.2948357387504 132.89778523682617,266.05270655467757 136.87249790201895,265.10536782769486 144.04636954166926,265.92639484416577 146.0821979797911,265.1685238072532 146.46997482539155,258.22131085782894 144.04636954166926,257.84236876573414 138.90832634014077,253.48451088104048 135.22444630903192,249.37924233984086 136.2908326338511,247.16869701156975" stroke="#4dd2ff" stroke-linecap="round" stroke-linejoin="round" stroke-width="0.5"><title>2015-07-07 10.3km</title></polyline><polyline fill="none" points="178.49284944008105,255.72030202369206 181.2557640953455,256.4402948853094 182.49907569028437,255.78030147703248 182.31488137994893,237.12004984429223 179.87430676771328,236.04000937761157 176.23646913818084,236.82003888790496 171.0329798704479,236.340020902775 169.55942538753152,237.06004767044215 164.9085190508049,235.98000704639708 162.56004159408621,236.340020902775 161.31672999914736,248.16030092793517 162.0995558181312,252.9603177185636 161.31672999914736,259.620248291234 162.1916529731825,263.4601592789404 168.27006521518342,264.4801296129299 172.5986315086484,264.1201403720188 176.2825177158229,265.68009147577686 182.36092995735817,264.72012226548395 182.59117284533568,263.22016589163104 182.26883280230686,237.48006270310725 180.56503543141298,236.52002771265688 165.04666478396393,235.80000000001746 162.83633305947296,236.4600254514371 161.63907004217617,239.5801314371347 161.5930214645341,263.6401542273816 166.33602495631203,264.9001166628441 173.19726301706396,263.76015081605874 182.31488137994893,265.2601052218233 182.6832700006198,240.48015761384158 182.17673564725555,237.30005631313543 180.84132689703256,236.40002318148618 164.2638389649801,236.1000117000949 162.0995558181312,236.94004329657764 161.5009243094828,259.6802471759729 162.65213874913752,263.8201490972133 166.70441357698292,264.9001166628441 172.6907286636997,264.0601421344618 178.26260655210353,264.84011853902484 182.08463849220425,264.36013323426596 182.40697853500023,237.7800731784955 178.4007522847969,236.58002996523282 162.74423590442166,237.00004548797733 161.63907004217617,249.4803111262445 162.28375012846664,263.6401542273816 167.02675362024456,265.620093465579 176.32856629323214,264.72012226548395 178.81518948310986,265.2601052218233 179.7361610350199,264.36013323426596 182.03858991456218,264.3001350318664 182.49907569028437,238.02008140130783 181.2557640953455,236.7600366702536 172.87492297426797,236.28001861518715 163.34286741283722,236.58002996523282 162.37584728351794,237.24005416562431 161.45487573184073,244.9202579454868 162.2377015510574,251.10031785591855 161.5009243094828,257.4602826165792 162.28375012846664,263.58015591991716 166.2899763789028,265.2001071504783 172.18419431033544,265.5000974193972 177.47978073288687,268.20000000001164 181.53205556073226,264.9601147779904 182.6832700006198,256.4402948853094 182.40697853500023,247.92029861875926 179.3677724141162,246.6602841997519 175.49969189683907,246.9002872435667 169.37523107719608,252.42031862435397 168.17796805989929,255.18030655075563 168.4082109478768,263.8801473696949 173.4275059052743,264.1201403720188 177.9402665088419,265.5600954469119 181.30181267298758,264.84011853902484 182.31488137994893,262.500184890785 182.17673564725555,257.52028181627975 175.26944900862873,252.78031809921958 170.98693129280582,247.92029861875926 171.81580568966456,247.20029085170245" stroke="#4dd2ff" stroke-linecap="round" stroke-linejoin="round" stroke-width="0.5"><title>2015-07-01 10.2km</title></polyline></svg>