<?xml version="1.0" encoding="utf-8" ?>
<svg baseProfile="full" height="200mm" version="1.1" viewBox="0,0,200,200" width="200mm" xmlns="http://www.w3.org/2000/svg" xmlns:ev="http://www.w3.org/2001/xml-events" xmlns:xlink="http://www.w3.org/1999/xlink"><defs /><rect fill="#1a1a1a" height="200" width="200" x="0" y="0" /><text alignment-baseline="middle" fill="#e1ed5e" style="dominant-baseline: central; font-size:9.0px; font-family:Arial;" text-anchor="middle" x="100.0" y="100.0">2019</text><line stroke="#e1ed5e" stroke-width="0.3" x1="100.0" x2="100.0" y1="15.0" y2="10.0" /><path d="M 100.0 14.0 a86.0,86.0 0 0,1 42.46469731375804,11.215312516191453" fill="none" id="id49" stroke="none" /><text fill="#e1ed5e" style="font-size:6.75px; font-family:Arial;" text-anchor="middle"><textPath startOffset="22.20632615414155" xlink:href="#id49">January</textPath></text><line stroke="#e1ed5e" stroke-width="0.3" x1="143.23703022742887" x2="145.7803849466894" y1="26.81831364943548" y2="22.513508569990506" /><path d="M 143.74570117128098 25.957352633546492 a86.0,86.0 0 0,1 28.547481713284135,27.462654790039103" fill="none" id="id50" stroke="none" /><text fill="#e1ed5e" style="font-size:6.75px; font-family:Arial;" text-anchor="middle"><textPath startOffset="19.985693538727396" xlink:href="#id50">February</textPath></text><line stroke="#e1ed5e" stroke-width="0.3" x1="172.23445277983987" x2="176.4835382374775" y1="55.19839476539836" y2="52.563006222186495" /><path d="M 173.08426987136738 54.67131705675599 a86.0,86.0 0 0,1 12.851231095245387,41.99856678651699" fill="none" id="id51" stroke="none" /><text fill="#e1ed5e" style="font-size:6.75px; font-family:Arial;" text-anchor="middle"><textPath startOffset="22.20632615414155" xlink:href="#id51">March</textPath></text><line stroke="#e1ed5e" stroke-width="0.3" x1="184.98032266829074" x2="189.97916517819016" y1="98.17113171792111" y2="98.06355123074" /><path d="M 185.9800911702706 98.14961562048488 a86.0,86.0 0 0,1 -9.607161424134198,41.387399972396054" fill="none" id="id52" stroke="none" /><text fill="#e1ed5e" style="font-size:6.75px; font-family:Arial;" text-anchor="middle"><textPath startOffset="21.466115282336823" xlink:href="#id52">April</textPath></text><path d="M 119.9155931802556 106.66101706037122 l 29.285140427875643 9.79477830461202 a51.87972039894297,51.87972039894297 0 0,0 -0.2905490860484382,0.8444716470692171 l -29.112200510883977 -10.297422654770537" fill="#ff0000" stroke="none" /><path d="M 119.41010516605496 108.01547362559984 l 49.97055546159968 20.635522885239162 a75.06367743585372,75.06367743585372 0 0,0 -0.5034593007112865,1.1900290674082714 l -49.60794517969609 -21.492626478313596" fill="#38ff7d" stroke="none" /><path d="M 118.97047184881838 109.00673069616215 l 49.41119830710471 23.459266594598464 a75.69738300230159,75.69738300230159 0 0,0 -0.5689802566524755,1.1722678550892816 l -49.000064793837524 -24.30632340565302" fill="#39ff8b" stroke="none" /><line stroke="#e1ed5e" stroke-width="0.3" x1="174.80103733775053" x2="179.2010983576182" y1="140.37084112569926" y2="142.7455964860345" /><path d="M 175.68104954172406 140.8457921977663 a86.0,86.0 0 0,1 -30.038265399797805,32.042727171017184" fill="none" id="id53" stroke="none" /><text fill="#e1ed5e" style="font-size:6.75px; font-family:Arial;" text-anchor="middle"><textPath startOffset="22.206326154141568" xlink:href="#id53">May</textPath></text><line stroke="#e1ed5e" stroke-width="0.3" x1="143.8653032363475" x2="146.44561519142675" y1="172.8068346515853" y2="177.08958963109032" /><path d="M 144.38136562736335 173.6633856474863 a86.0,86.0 0 0,1 -40.68145358897372,12.25698825130547" fill="none" id="id54" stroke="none" /><text fill="#e1ed5e" style="font-size:6.75px; font-family:Arial;" text-anchor="middle"><textPath startOffset="21.466115282336833" xlink:href="#id54">June</textPath></text><path d="M 103.41894727170886 120.7198165907248 l 8.831673273769805 53.522513182911396 a75.24627056516921,75.24627056516921 0 0,0 -1.279774725861358,0.19987449228299004 l -7.909062684299931 -53.66660598254149" fill="#38ff81" stroke="none" /><path d="M 101.98527174616119 120.90594882070398 l 5.0967887800815435 53.6718490012055 a74.91330662347626,74.91330662347626 0 0,0 -1.2847834789150083,0.11085652464772769 l -4.172160983424993 -53.75162977813189" fill="#37ff7a" stroke="none" /><path d="M 100.90346689309514 120.98055641714683 l 2.3289437257861314 54.083371072757664 a75.13349245588611,75.13349245588611 0 0,0 -1.2925810348532238,0.04451910436095966 l -1.397642339258255 -54.115446975544714" fill="#38ff7e" stroke="none" /><line stroke="#e1ed5e" stroke-width="0.3" x1="102.19456741930631" x2="102.32365962044197" y1="184.97166512339345" y2="189.96999836594603" /><path d="M 102.22038585953345 185.97133177190398 a86.0,86.0 0 0,1 -42.740103519485714,-10.115201625700543" fill="none" id="id55" stroke="none" /><text fill="#e1ed5e" style="font-size:6.75px; font-family:Arial;" text-anchor="middle"><textPath startOffset="22.20632615414155" xlink:href="#id55">July</textPath></text><path d="M 99.81925306533755 120.99922214144158 l -0.46754460253448055 54.319443856623025 a75.32145597135795,75.32145597135795 0 0,0 -1.2963909716201607,-0.022318546245169053 l 1.4024952640473092 -54.3033478330987" fill="#38ff83" stroke="none" /><path d="M 98.73552117531835 120.96189622390904 l -3.27022615821469 54.21217027850789 a75.31071519904526,75.31071519904526 0 0,0 -1.2933261149118074,-0.08919534107918194 l 4.202915033905427 -54.14784659291242" fill="#38ff82" stroke="none" /><path d="M 98.01472825383883 120.90594882070398 l -5.117096734180846 53.88570236907564 a75.12812206972978,75.12812206972978 0 0,0 -1.2863630368814645,-0.13333678839388233 l 6.043892367667904 -53.789636212226" fill="#38ff7e" stroke="none" /><path d="M 96.93821686468263 120.77559828337769 l -7.898100712457481 53.5922239922677 a75.17108515898047,75.17108515898047 0 0,0 -1.2784959863056131,-0.1996747794629899 l 8.819432562371611 -53.4483309054576" fill="#38ff7f" stroke="none" /><path d="M 94.46302465271185 120.25689768951611 l -14.256142135324465 52.15576999523865 a75.06904782201005,75.06904782201005 0 0,0 -1.2435324751115007,-0.35143469877666916 l 15.151805778540579 -51.90264650312346" fill="#38ff7d" stroke="none" /><path d="M 93.42475214034765 119.94407469862007 l -16.909221501150128 51.28913524064191 a75.00460318813401,75.00460318813401 0 0,0 -1.2226831352538725,-0.4148005039600668 l 17.789574369341228 -50.99047174978372" fill="#37ff7c" stroke="none" /><path d="M 92.40401165467489 119.57807347666478 l -19.528378868524438 50.33288875481487 a74.988492029665,74.988492029665 0 0,0 -1.1993835243889324,-0.4772594568092977 l 20.39188346895523 -49.9892824535995" fill="#37ff7b" stroke="none" /><path d="M 91.40352486487194 119.15986991738527 l -22.122494915555432 49.306735396466124 a75.04219589122837,75.04219589122837 0 0,0 -1.1739887151504371,-0.538920638615259 l 22.96795162647329 -48.91862768751679" fill="#38ff7c" stroke="none" /><path d="M 90.10565033884886 118.52300852407294 l -25.530812739156495 47.79570948970144 a75.18719631744949,75.18719631744949 0 0,0 -1.1363190928910774,-0.6196117709861116 l 26.349754643916214 -47.349157066955556" fill="#38ff80" stroke="none" /><line stroke="#e1ed5e" stroke-width="0.3" x1="58.666819895761336" x2="56.23545636021788" y1="174.27360380694188" y2="178.64263932499728" /><path d="M 58.180547188652646 175.14741091055294 a86.0,86.0 0 0,1 -31.652253787137756,-30.449443065178592" fill="none" id="id56" stroke="none" /><text fill="#e1ed5e" style="font-size:6.75px; font-family:Arial;" text-anchor="middle"><textPath startOffset="22.20632615414155" xlink:href="#id56">August</textPath></text><path d="M 89.1626897886671 117.98757091392108 l -27.922402279220616 46.3450968266358 a75.10664052510442,75.10664052510442 0 0,0 -1.10163845261615,-0.676716314529756 l 28.716019931769075 -45.85759204527766" fill="#38ff7e" stroke="none" /><path d="M 87.95078237400918 117.19931262002967 l -36.14765287797246 51.59793786008904 a84.0,84.0 0 0,0 -1.1770906886044523,-0.8398229526231229 l 37.030470894425804 -50.968070645621694" fill="#4dd2ff" stroke="none" /><path d="M 87.07902340077011 116.55440617244103 l -33.72715236936478 43.21136061770667 a75.81553149774103,75.81553149774103 0 0,0 -1.0218580060041302,-0.8118258012151315 l 34.465967868086274 -42.62440090248641" fill="#39ff8d" stroke="none" /><path d="M 86.51685102203217 116.09983520530335 l -35.06699133217958 41.87247226270608 a75.61682720995653,75.61682720995653 0 0,0 -0.9907047484364976,-0.8443000794981081 l 35.782561557193134 -41.26264779298502" fill="#39ff89" stroke="none" /><path d="M 85.70375840098266 115.38237550388516 l -37.01350693422168 39.82554844463388 a75.36978944676498,75.36978944676498 0 0,0 -0.9427115646273493,-0.8913926254442142 l 37.69355433323985 -39.182521182443736" fill="#38ff84" stroke="none" /><path d="M 84.19399662182784 113.82643327865904 l -40.94254749403441 35.8148348852282 a75.39664137754667,75.39664137754667 0 0,0 -0.8460849187535538,-0.9841879070424232 l 41.55297492235874 -35.10476987902425" fill="#38ff84" stroke="none" /><path d="M 83.50135304334701 112.99209946851258 l -42.63545158050768 33.57390634966832 a75.26775210979457,75.26775210979457 0 0,0 -0.7927958880955669,-1.0247955553247106 l 43.20705428582131 -32.83503280023036" fill="#38ff81" stroke="none" /><path d="M 83.06392112726016 112.41649034213515 l -46.82794768699935 34.33136823267373 a79.06461512232546,79.06461512232546 0 0,0 -0.7952402105657271,-1.1045190988014304 l 47.41196768994069 -33.52021552842117" fill="#41ffd0" stroke="none" /><path d="M 82.44556493220864 111.52570212397912 l -45.345839728862146 29.772683612900792 a75.24627056516921,75.24627056516921 0 0,0 -0.7015644678892902,-1.0888436338676877 l 45.851609060128474 -28.987718379111655" fill="#38ff81" stroke="none" /><line stroke="#e1ed5e" stroke-width="0.3" x1="26.63291911575756" x2="22.317208475507996" y1="142.92168965132927" y2="145.44649492493687" /><path d="M 25.769776987707644 143.4266507060508 a86.0,86.0 0 0,1 -11.730757126820373,-40.83630448921669" fill="none" id="id57" stroke="none" /><text fill="#e1ed5e" style="font-size:6.75px; font-family:Arial;" text-anchor="middle"><textPath startOffset="21.46611528233685" xlink:href="#id57">September</textPath></text><path d="M 81.18737489456691 109.33194174019688 l -48.62480656566674 24.120177777215037 a75.27849288210723,75.27849288210723 0 0,0 -0.5658316642091755,-1.1657808220738082 l 49.03279148649064 -23.279607999175944" fill="#38ff82" stroke="none" /><path d="M 80.73074385275274 108.34839909993369 l -49.79027298059491 21.5716199400895 a75.26238172363821,75.26238172363821 0 0,0 -0.5047920294716438,-1.1931792445160414 l 50.15421599125886 -20.7113661699073" fill="#38ff81" stroke="none" /><line stroke="#e1ed5e" stroke-width="0.3" x1="15.007084014347285" x2="10.007500721073583" y1="101.09737516637583" y2="101.16192664675087" /><path d="M 14.007167355692545 101.11028546245083 a86.0,86.0 0 0,1 10.666146001902534,-42.60595125391555" fill="none" id="id58" stroke="none" /><text fill="#e1ed5e" style="font-size:6.75px; font-family:Arial;" text-anchor="middle"><textPath startOffset="22.20632615414155" xlink:href="#id58">October</textPath></text><line stroke="#e1ed5e" stroke-width="0.3" x1="26.266209847984243" x2="21.928928074336255" y1="57.711370442889674" y2="55.22380399835377" /><path d="M 25.398753493254645 57.213857153982495 a86.0,86.0 0 0,1 29.58750427330803,-30.492523968695096" fill="none" id="id59" stroke="none" /><text fill="#e1ed5e" style="font-size:6.75px; font-family:Arial;" text-anchor="middle"><textPath startOffset="21.46611528233685" xlink:href="#id59">November</textPath></text><line stroke="#e1ed5e" stroke-width="0.3" x1="56.762969772571076" x2="54.21961505331055" y1="26.818313649435495" y2="22.513508569990535" /><path d="M 56.25429882871897 25.957352633546506 a86.0,86.0 0 0,1 42.265352541879196,-11.944610805530505" fill="none" id="id60" stroke="none" /><text fill="#e1ed5e" style="font-size:6.75px; font-family:Arial;" text-anchor="middle"><textPath startOffset="22.20632615414155" xlink:href="#id60">December</textPath></text></svg>