<?xml version="1.0" encoding="utf-8" ?>
<svg baseProfile="full" height="200mm" version="1.1" viewBox="0,0,200,200" width="200mm" xmlns="http://www.w3.org/2000/svg" xmlns:ev="http://www.w3.org/2001/xml-events" xmlns:xlink="http://www.w3.org/1999/xlink"><defs /><rect fill="#1a1a1a" height="200" width="200" x="0" y="0" /><text alignment-baseline="middle" fill="#e1ed5e" style="dominant-baseline: central; font-size:9.0px; font-family:Arial;" text-anchor="middle" x="100.0" y="100.0">2019</text><line stroke="#e1ed5e" stroke-width="0.3" x1="100.0" x2="100.0" y1="15.0" y2="10.0" /><path d="M 100.0 14.0 a86.0,86.0 0 0,1 42.46469731375804,11.215312516191453" fill="none" id="id49" stroke="none" /><text fill="#e1ed5e" style="font-size:6.75px; font-family:Arial;" text-anchor="middle"><textPath startOffset="22.20632615414155" xlink:href="#id49">January</textPath></text><line stroke="#e1ed5e" stroke-width="0.3" x1="143.23703022742887" x2="145.7803849466894" y1="26.81831364943548" y2="22.513508569990506" /><path d="M 143.74570117128098 25.957352633546492 a86.0,86.0 0 0,1 28.547481713284135,27.462654790039103" fill="none" id="id50" stroke="none" /><text fill="#e1ed5e" style="font-size:6.75px; font-family:Arial;" text-anchor="middle"><textPath startOffset="19.985693538727396" xlink:href="#id50">February</textPath></text><line stroke="#e1ed5e" stroke-width="0.3" x1="172.23445277983987" x2="176.4835382374775" y1="55.19839476539836" y2="52.563006222186495" /><path d="M 173.08426987136738 54.67131705675599 a86.0,86.0 0 0,1 12.851231095245387,41.99856678651699" fill="none" id="id51" stroke="none" /><text fill="#e1ed5e" style="font-size:6.75px; font-family:Arial;" text-anchor="middle"><textPath startOffset="22.20632615414155" xlink:href="#id51">March</textPath></text><line stroke="#e1ed5e" stroke-width="0.3" x1="184.98032266829074" x2="189.97916517819016" y1="98.17113171792111" y2="98.06355123074" /><path d="M 185.9800911702706 98.14961562048488 a86.0,86.0 0 0,1 -9.607161424134198,41.387399972396054" fill="none" id="id52" stroke="none" /><text fill="#e1ed5e" style="font-size:6.75px; font-family:Arial;" text-anchor="middle"><textPath startOffset="21.466115282336823" xlink:href="#id52">April</textPath></text><path d="M 119.9155931802556 106.66101706037122 l 28.858645977368155 9.652131947796473 a51.4300032662624,51.4300032662624 0 0,0 -0.28803047374914514,0.8371513807911871 l -28.68822467267578 -10.14745603167696" fill="#b7ff1f" stroke="none" /><path d="M 119.41010516605496 108.01547362559984 l 49.55426859247168 20.463615706394275 a74.61329222789635,74.61329222789635 0 0,0 -0.5004385238243202,1.18288884317055 l -49.19467908745505 -21.31357907523099" fill="#40ffc5" stroke="none" /><path d="M 118.97047184881838 109.00673069616215 l 49.20936081714963 23.363438935123142 a75.47395222404603,75.47395222404603 0 0,0 -0.5673008366182051,1.1688077523909015 l -48.79990672391671 -24.20703564347932" fill="#41ffcf" stroke="none" /><line stroke="#e1ed5e" stroke-width="0.3" x1="174.80103733775053" x2="179.2010983576182" y1="140.37084112569926" y2="142.7455964860345" /><path d="M 175.68104954172406 140.8457921977663 a86.0,86.0 0 0,1 -30.038265399797805,32.042727171017184" fill="none" id="id53" stroke="none" /><text fill="#e1ed5e" style="font-size:6.75px; font-family:Arial;" text-anchor="middle"><textPath startOffset="22.206326154141568" xlink:href="#id53">May</textPath></text><line stroke="#e1ed5e" stroke-width="0.3" x1="143.8653032363475" x2="146.44561519142675" y1="172.8068346515853" y2="177.08958963109032" /><path d="M 144.38136562736335 173.6633856474863 a86.0,86.0 0 0,1 -40.68145358897372,12.25698825130547" fill="none" id="id54" stroke="none" /><text fill="#e1ed5e" style="font-size:6.75px; font-family:Arial;" text-anchor="middle"><textPath startOffset="21.466115282336833" xlink:href="#id54">June</textPath></text><path d="M 103.41894727170886 120.7198165907248 l 8.787001844017889 53.25179130341235 a74.97188785311253,74.97188785311253 0 0,0 -1.275108075176002,0.1991456574204561 l -7.86905790523337 -53.395155268179906" fill="#40ffc9" stroke="none" /><path d="M 101.98527174616119 120.90594882070398 l 0.7647784281190261 8.053516456047245 a29.089747422011392,29.089747422011392 0 0,0 -0.49889703950003533,0.04304693581732511 l -0.6260370708774491 -8.065487644143232" fill="#ff0000" stroke="none" /><path d="M 100.90346689309514 120.98055641714683 l 2.084037965830442 48.39610222770719 a69.44095297449987,69.44095297449987 0 0,0 -1.194647765238301,0.041146084540278294 l -1.2506698489174892 -48.42480511067356" fill="#39ff86" stroke="none" /><line stroke="#e1ed5e" stroke-width="0.3" x1="102.19456741930631" x2="102.32365962044197" y1="184.97166512339345" y2="189.96999836594603" /><path d="M 102.22038585953345 185.97133177190398 a86.0,86.0 0 0,1 -42.740103519485714,-10.115201625700543" fill="none" id="id55" stroke="none" /><text fill="#e1ed5e" style="font-size:6.75px; font-family:Arial;" text-anchor="middle"><textPath startOffset="22.20632615414155" xlink:href="#id55">July</textPath></text><path d="M 99.81925306533755 120.99922214144158 l -0.46880537452071586 54.465920647823424 a75.46793818838911,75.46793818838911 0 0,0 -1.2989121419986822,-0.022361950479629793 l 1.406277206412066 -54.44978122006463" fill="#41ffcf" stroke="none" /><path d="M 98.73552117531835 120.96189622390904 l -3.263842235994197 54.10634081543154 a75.20469336300218,75.20469336300218 0 0,0 -1.2915053805190584,-0.08906977257538123 l 4.194710377292186 -54.04214269833987" fill="#41ffcc" stroke="none" /><path d="M 98.01472825383883 120.90594882070398 l -5.092258006330527 53.62413758621191 a74.86538056551743,74.86538056551743 0 0,0 -1.2818643092417703,-0.13287047687984052 l 6.014554912177892 -53.52853774087631" fill="#40ffc8" stroke="none" /><path d="M 96.93821686468263 120.77559828337769 l -7.8607313231435905 53.33865560216026 a74.91477792201793,74.91477792201793 0 0,0 -1.2741367599751077,-0.19899395796218242 l 8.777703946727215 -53.19544333685097" fill="#40ffc9" stroke="none" /><path d="M 94.46302465271185 120.25689768951611 l -14.226627322674332 52.04779072809747 a74.95710745262474,74.95710745262474 0 0,0 -1.2416781624667383,-0.350910651501031 l 15.120436653245685 -51.795191283257914" fill="#40ffc9" stroke="none" /><path d="M 93.42475214034765 119.94407469862007 l -16.88931128224338 51.22874346505902 a74.9410140115788,74.9410140115788 0 0,0 -1.2216465400256606,-0.4144488345776511 l 17.76862755520627 -50.93043164358324" fill="#40ffc9" stroke="none" /><path d="M 92.40401165467489 119.57807347666478 l -19.5320207585562 50.342275445182764 a74.99856046147269,74.99856046147269 0 0,0 -1.199544561248052,-0.4773235366989635 l 20.39568639584611 -49.998605064077736" fill="#40ffca" stroke="none" /><path d="M 91.40352486487194 119.15986991738527 l -22.173461951157307 49.42033099894931 a75.16670131127731,75.16670131127731 0 0,0 -1.175936525397413,-0.5398147827655859 l 23.02086647232214 -49.031329145849654" fill="#41ffcc" stroke="none" /><path d="M 90.10565033884886 118.52300852407294 l -25.621808551322236 47.96606087833478 a75.38032796540242,75.38032796540242 0 0,0 -1.1392379300037665,-0.621203353706078 l 26.44366929319464 -47.51791687286894" fill="#41ffce" stroke="none" /><line stroke="#e1ed5e" stroke-width="0.3" x1="58.666819895761336" x2="56.23545636021788" y1="174.27360380694188" y2="178.64263932499728" /><path d="M 58.180547188652646 175.14741091055294 a86.0,86.0 0 0,1 -31.652253787137756,-30.449443065178592" fill="none" id="id56" stroke="none" /><text fill="#e1ed5e" style="font-size:6.75px; font-family:Arial;" text-anchor="middle"><textPath startOffset="22.20632615414155" xlink:href="#id56">August</textPath></text><path d="M 89.1626897886671 117.98757091392108 l -27.97565875949107 46.433490966584735 a75.20983828025496,75.20983828025496 0 0,0 -1.1031521219069431,-0.6776461338379418 l 28.77079008133032 -45.94505636591842" fill="#41ffcc" stroke="none" /><path d="M 87.95078237400918 117.19931262002967 l -36.147652877972455 51.59793786008904 a84.0,84.0 0 0,0 -1.1770906886044616,-0.8398229526231322 l 37.030470894425804 -50.96807064562169" fill="#4dd2ff" stroke="none" /><path d="M 87.07902340077011 116.55440617244103 l -33.640035902429396 43.09974665672771 a75.67394422749149,75.67394422749149 0 0,0 -1.019949662386476,-0.8103096976300023 l 34.376943057533225 -42.514303045092575" fill="#41ffd1" stroke="none" /><path d="M 86.51685102203217 116.09983520530335 l -35.15183340019775 41.97377970326034 a75.74896870236998,75.74896870236998 0 0,0 -0.9924360192240962,-0.8457755060224174 l 35.869134895998904 -41.36247980701497" fill="#41ffd2" stroke="none" /><path d="M 85.70375840098266 115.38237550388516 l -37.10925805273062 39.92857409998675 a75.51043994394362,75.51043994394362 0 0,0 -0.9444707953646883,-0.8930560879120149 l 37.79106468248612 -39.283883375328806" fill="#41ffd0" stroke="none" /><path d="M 84.19399662182784 113.82643327865904 l -40.868434490521004 35.7500039172952 a75.29817416628877,75.29817416628877 0 0,0 -0.844979940853811,-0.9829025681096856 l 41.477756940945596 -35.04122425002399" fill="#41ffcd" stroke="none" /><path d="M 83.50135304334701 112.99209946851258 l -42.66405253159639 33.59642858451672 a75.3041563055108,75.3041563055108 0 0,0 -0.7931793338059046,-1.0252912105943237 l 43.23603868262036 -32.85705937980915" fill="#41ffcd" stroke="none" /><path d="M 83.06392112726016 112.41649034213515 l -44.78518840231906 32.833742889751804 a76.53168259994956,76.53168259994956 0 0,0 -0.7697637089812122,-1.069134466338328 l 45.34373190367588 -32.05797481796234" fill="#43ffdb" stroke="none" /><path d="M 82.44556493220864 111.52570212397912 l -45.42660107362738 29.825709027806 a75.34288365659144,75.34288365659144 0 0,0 -0.7024652475766512,-1.0902416639461652 l 45.93327118458108 -29.039345763938385" fill="#41ffce" stroke="none" /><line stroke="#e1ed5e" stroke-width="0.3" x1="26.63291911575756" x2="22.317208475507996" y1="142.92168965132927" y2="145.44649492493687" /><path d="M 25.769776987707644 143.4266507060508 a86.0,86.0 0 0,1 -11.730757126820373,-40.83630448921669" fill="none" id="id57" stroke="none" /><text fill="#e1ed5e" style="font-size:6.75px; font-family:Arial;" text-anchor="middle"><textPath startOffset="21.46611528233685" xlink:href="#id57">September</textPath></text><path d="M 81.18737489456691 109.33194174019688 l -48.685926214128294 24.150495980837764 a75.34671901272426,75.34671901272426 0 0,0 -0.5663444867106839,-1.1668373883199274 l 49.09442395745369 -23.308869636552554" fill="#41ffce" stroke="none" /><path d="M 80.73074385275274 108.34839909993369 l -49.880775502592016 21.610830128973223 a75.36101308477723,75.36101308477723 0 0,0 -0.5054535594926007,-1.1947429060727748 l 50.245380043276924 -20.74901269723429" fill="#41ffce" stroke="none" /><line stroke="#e1ed5e" stroke-width="0.3" x1="15.007084014347285" x2="10.007500721073583" y1="101.09737516637583" y2="101.16192664675087" /><path d="M 14.007167355692545 101.11028546245083 a86.0,86.0 0 0,1 10.666146001902534,-42.60595125391555" fill="none" id="id58" stroke="none" /><text fill="#e1ed5e" style="font-size:6.75px; font-family:Arial;" text-anchor="middle"><textPath startOffset="22.20632615414155" xlink:href="#id58">October</textPath></text><line stroke="#e1ed5e" stroke-width="0.3" x1="26.266209847984257" x2="21.92892807433627" y1="57.711370442889674" y2="55.22380399835377" /><path d="M 25.39875349325466 57.213857153982495 a86.0,86.0 0 0,1 29.58750427330802,-30.492523968695096" fill="none" id="id59" stroke="none" /><text fill="#e1ed5e" style="font-size:6.75px; font-family:Arial;" text-anchor="middle"><textPath startOffset="21.46611528233685" xlink:href="#id59">November</textPath></text><line stroke="#e1ed5e" stroke-width="0.3" x1="56.762969772571076" x2="54.21961505331055" y1="26.818313649435495" y2="22.513508569990535" /><path d="M 56.25429882871897 25.957352633546506 a86.0,86.0 0 0,1 42.265352541879196,-11.944610805530505" fill="none" id="id60" stroke="none" /><text fill="#e1ed5e" style="font-size:6.75px; font-family:Arial;" text-anchor="middle"><textPath startOffset="22.20632615414155" xlink:href="#id60">December</textPath></text></svg>