<?xml version="1.0" encoding="utf-8" ?>
<svg baseProfile="full" height="200mm" version="1.1" viewBox="0,0,200,200" width="200mm" xmlns="http://www.w3.org/2000/svg" xmlns:ev="http://www.w3.org/2001/xml-events" xmlns:xlink="http://www.w3.org/1999/xlink"><defs /><rect fill="#1a1a1a" height="200" width="200" x="0" y="0" /><text alignment-baseline="middle" fill="#e1ed5e" style="dominant-baseline: central; font-size:9.0px; font-family:Arial;" text-anchor="middle" x="100.0" y="100.0">2015</text><line stroke="#e1ed5e" stroke-width="0.3" x1="100.0" x2="100.0" y1="15.0" y2="10.0" /><path d="M 100.0 14.0 a86.0,86.0 0 0,1 42.46469731375804,11.215312516191453" fill="none" id="id1" stroke="none" /><text fill="#e1ed5e" style="font-size:6.75px; font-family:Arial;" text-anchor="middle"><textPath startOffset="22.20632615414155" xlink:href="#id1">January</textPath></text><line stroke="#e1ed5e" stroke-width="0.3" x1="143.23703022742887" x2="145.7803849466894" y1="26.81831364943548" y2="22.513508569990506" /><path d="M 143.74570117128098 25.957352633546492 a86.0,86.0 0 0,1 28.547481713284135,27.462654790039103" fill="none" id="id2" stroke="none" /><text fill="#e1ed5e" style="font-size:6.75px; font-family:Arial;" text-anchor="middle"><textPath startOffset="19.985693538727396" xlink:href="#id2">February</textPath></text><line stroke="#e1ed5e" stroke-width="0.3" x1="172.23445277983987" x2="176.4835382374775" y1="55.19839476539836" y2="52.563006222186495" /><path d="M 173.08426987136738 54.67131705675599 a86.0,86.0 0 0,1 12.851231095245387,41.99856678651699" fill="none" id="id3" stroke="none" /><text fill="#e1ed5e" style="font-size:6.75px; font-family:Arial;" text-anchor="middle"><textPath startOffset="22.20632615414155" xlink:href="#id3">March</textPath></text><line stroke="#e1ed5e" stroke-width="0.3" x1="184.98032266829074" x2="189.97916517819016" y1="98.17113171792111" y2="98.06355123074" /><path d="M 185.9800911702706 98.14961562048488 a86.0,86.0 0 0,1 -9.607161424134198,41.387399972396054" fill="none" id="id4" stroke="none" /><text fill="#e1ed5e" style="font-size:6.75px; font-family:Arial;" text-anchor="middle"><textPath startOffset="21.466115282336823" xlink:href="#id4">April</textPath></text><line stroke="#e1ed5e" stroke-width="0.3" x1="174.80103733775053" x2="179.2010983576182" y1="140.37084112569926" y2="142.7455964860345" /><path d="M 175.68104954172406 140.8457921977663 a86.0,86.0 0 0,1 -30.038265399797805,32.042727171017184" fill="none" id="id5" stroke="none" /><text fill="#e1ed5e" style="font-size:6.75px; font-family:Arial;" text-anchor="middle"><textPath startOffset="22.206326154141568" xlink:href="#id5">May</textPath></text><path d="M 111.7513745106137 117.40417183066458 l 20.58595615043593 30.48847756635767 a57.78761822871883,57.78761822871883 0 0,0 -0.8291843558032687,0.5495381769854548 l -20.0580970958927 -30.838313764434442" fill="#a5ff21" stroke="none" /><path d="M 111.45004920935366 117.60387380957326 l 20.90150857391044 32.135016421086874 a59.33447979363714,59.33447979363714 0 0,0 -0.8609664647238061,0.5495095330051282 l -20.345260307139704 -32.49004038291581" fill="#8fff24" stroke="none" /><line stroke="#e1ed5e" stroke-width="0.3" x1="143.8653032363475" x2="146.44561519142675" y1="172.8068346515853" y2="177.08958963109032" /><path d="M 144.38136562736335 173.6633856474863 a86.0,86.0 0 0,1 -40.68145358897372,12.25698825130547" fill="none" id="id6" stroke="none" /><text fill="#e1ed5e" style="font-size:6.75px; font-family:Arial;" text-anchor="middle"><textPath startOffset="21.466115282336833" xlink:href="#id6">June</textPath></text><path d="M 110.8373102113329 117.98757091392108 l 19.68048079650482 32.665305047464585 a59.13585554600172,59.13585554600172 0 0,0 -0.8764275342923892,0.5178088355442565 l -19.11528539118405 -32.99923245530259" fill="#92ff23" stroke="none" /><path d="M 108.59647513512805 119.15986991738527 l 17.88037261554149 39.851870447252786 a64.67927773000861,64.67927773000861 0 0,0 -1.019712934975001,0.44701218409223037 l -17.191739005908733 -40.15374718463947" fill="#44ff2d" stroke="none" /><path d="M 107.2578585660854 119.70592522655815 l 16.94124395591847 45.99743624106895 a70.01805674978505,70.01805674978505 0 0,0 -1.1345607197461438,0.4068131083640424 l -16.14696367554259 -46.28223689047295" fill="#36ff6b" stroke="none" /><path d="M 105.88484417918355 120.15858648285463 l 15.593403392534233 53.41534308798827 a76.64488392089424,76.64488392089424 0 0,0 -1.269636487634265,0.3588119534615359 l -14.671635736795363 -53.675843834788324" fill="#41ffcc" stroke="none" /><path d="M 104.83641907484287 120.43548508189849 l 14.107261944590384 59.607890994118954 a82.25451418744626,82.25451418744626 0 0,0 -1.380621851073989,0.31422503838560184 l -13.079119944123532 -59.84189276608224" fill="#4ae8ff" stroke="none" /><path d="M 101.98527174616119 120.90594882070398 l 5.754386118924656 60.59669258348506 a81.86930352536544,81.86930352536544 0 0,0 -1.4040807079620379,0.12114999154646612 l -4.710461093221076 -60.68676682731019" fill="#49ecff" stroke="none" /><line stroke="#e1ed5e" stroke-width="0.3" x1="102.19456741930631" x2="102.32365962044197" y1="184.97166512339345" y2="189.96999836594603" /><path d="M 102.22038585953345 185.97133177190398 a86.0,86.0 0 0,1 -42.740103519485714,-10.115201625700543" fill="none" id="id7" stroke="none" /><text fill="#e1ed5e" style="font-size:6.75px; font-family:Arial;" text-anchor="middle"><textPath startOffset="22.20632615414155" xlink:href="#id7">July</textPath></text><path d="M 100.54218724476979 120.99299961872073 l 1.626561734309384 62.97899885616221 a84.0,84.0 0 0,0 -1.4457612404293283,0.02489009088336136 l -0.5422408039873879 -62.99766642432473" fill="#4dd2ff" stroke="none" /><path d="M 98.37488393609728 120.93702456842531 l -4.846003877570617 62.43301909140069 a83.62080825451419,83.62080825451419 0 0,0 -1.4341194879956325,-0.12374186388435919 l 5.9199676833077906 -62.340352975237664" fill="#4cd7ff" stroke="none" /><path d="M 96.58105272829116 120.7198165907248 l -9.953066047218899 60.31848011235075 a82.13413585554599,82.13413585554599 0 0,0 -1.3929598553431946,-0.24218392591067628 l 10.989874874034143 -60.13821760791907" fill="#4ae9ff" stroke="none" /><path d="M 94.46302465271185 120.25689768951611 l -4.45306759085427 16.291445949206707 a37.889079965606186,37.889079965606186 0 0,0 -0.6276395232964904,-0.1773771986053333 l 4.732838282255375 -16.21237995726285" fill="#ff0000" stroke="none" /><path d="M 93.76903079525671 120.05430185196036 l -18.198216164039593 58.57074688205104 a82.33276010318143,82.33276010318143 0 0,0 -1.3497815192035043,-0.4321574177534749 l 19.20371902833404 -58.24881661763786" fill="#4ae7ff" stroke="none" /><path d="M 92.7421414339146 119.70592522655815 l -21.367934419842136 58.016412704845315 a82.82631126397249,82.82631126397249 0 0,0 -1.33362106394891,-0.5042613729672171 l 22.36342570455133 -57.64000308177146" fill="#4be0ff" stroke="none" /><path d="M 91.07499286063937 119.00905698771935 l -25.982028522351943 55.33820344633574 a82.13413585554599,82.13413585554599 0 0,0 -1.2745940190509304,-0.6118825860954347 l 26.930735209403117 -54.88276658374074" fill="#4ae9ff" stroke="none" /><path d="M 90.10565033884886 118.52300852407294 l -28.443773889752332 53.24900415490155 a81.36973344797937,81.36973344797937 0 0,0 -1.2297570095579962,-0.6705615731899472 l 29.35615371117897 -52.751501929951836" fill="#49f3ff" stroke="none" /><line stroke="#e1ed5e" stroke-width="0.3" x1="58.666819895761336" x2="56.23545636021788" y1="174.27360380694188" y2="178.64263932499728" /><path d="M 58.180547188652646 175.14741091055294 a86.0,86.0 0 0,1 -31.652253787137756,-30.449443065178592" fill="none" id="id8" stroke="none" /><text fill="#e1ed5e" style="font-size:6.75px; font-family:Arial;" text-anchor="middle"><textPath startOffset="22.20632615414155" xlink:href="#id8">August</textPath></text><path d="M 89.1626897886671 117.98757091392108 l -31.76645787655535 52.725390580874425 a82.5554600171969,82.5554600171969 0 0,0 -1.2108951830692043,-0.7438307219782074 l 32.66933225955687 -52.17077139206784" fill="#4be4ff" stroke="none" /><path d="M 88.24862548938628 117.40417183066458 l -34.48282380041936 51.070195242861544 a82.62166809974204,82.62166809974204 0 0,0 -1.1718235725943207,-0.805990938488179 l 35.356804257636576 -50.469063515008266" fill="#4be3ff" stroke="none" /><path d="M 87.07902340077011 116.55440617244103 l -37.5630454703321 48.12592198540251 a82.04987102321581,82.04987102321581 0 0,0 -1.1058857722203996,-0.8785825406368756 l 38.38588873526985 -47.472205530760505" fill="#4aeaff" stroke="none" /><path d="M 86.24171649860922 115.8653595955263 l -40.170717692366836 46.322848437840754 a82.3147033533964,82.3147033533964 0 0,0 -1.06247761010304,-0.9375129587624472 l 40.96213765537646 -45.624512337306015" fill="#4ae7ff" stroke="none" /><path d="M 85.18274418774928 114.88116024355367 l -44.19270965384955 44.38330567337903 a83.63284608770422,83.63284608770422 0 0,0 -1.0113973960600073,-1.0245402224530424 l 44.95014767496509 -43.61602495694532" fill="#4cd6ff" stroke="none" /><path d="M 84.43433777217949 114.09645910891817 l -45.697643508043974 41.38435960236423 a82.6517626827171,82.6517626827171 0 0,0 -0.9459342724646083,-1.062767182894369 l 46.40323663015692 -40.591618249728995" fill="#4be3ff" stroke="none" /><path d="M 82.6465618267979 111.8261652097733 l -51.74696782860264 35.26495352321048 a83.62080825451419,83.62080825451419 0 0,0 -0.8003582277239102,-1.1964269564168903 l 52.34632916173728 -34.36898965258777" fill="#4cd7ff" stroke="none" /><line stroke="#e1ed5e" stroke-width="0.3" x1="26.63291911575756" x2="22.317208475507996" y1="142.92168965132927" y2="145.44649492493687" /><path d="M 25.769776987707644 143.4266507060508 a86.0,86.0 0 0,1 -11.730757126820373,-40.83630448921669" fill="none" id="id9" stroke="none" /><text fill="#e1ed5e" style="font-size:6.75px; font-family:Arial;" text-anchor="middle"><textPath startOffset="21.46611528233685" xlink:href="#id9">September</textPath></text><path d="M 81.51974371655577 109.97397251340807 l -54.71511820234422 29.530276888364963 a83.17540842648323,83.17540842648323 0 0,0 -0.6691560300488103,-1.2657910308182352 l 55.21532674061792 -28.5840708424606" fill="#4cdcff" stroke="none" /><path d="M 80.87730276802145 108.67885076344099 l -55.71835484674515 25.287817959627723 a82.18830610490112,82.18830610490112 0 0,0 -0.5735918566908492,-1.2932982130100998 l 56.145387788167284 -24.32497141012493" fill="#4ae8ff" stroke="none" /><path d="M 80.0844068197444 106.66101706037122 l -58.83348206044554 19.677587515404472 a83.03697334479793,83.03697334479793 0 0,0 -0.44170825594148017,-1.3594382275454926 l 59.16348256740327 -18.661950387881177" fill="#4bdeff" stroke="none" /><path d="M 79.76711848015287 105.62410040840567 l -60.31010828501291 16.76430044351361 a83.59673258813413,83.59673258813413 0 0,0 -0.37344620455405225,-1.3897322525436915 l 60.589742565908736 -15.72367725779438" fill="#4cd7ff" stroke="none" /><path d="M 79.35854240842038 103.8639653848113 l -56.07329752163706 10.496607600241177 a78.04729148753225,78.04729148753225 0 0,0 -0.23582753860353683,-1.3226460760224759 l 56.24567150257978 -9.529842773485486" fill="#43ffe0" stroke="none" /><path d="M 79.10278846688536 102.07522291339032 l -47.945594245509525 4.761295334390789 a69.18142734307824,69.18142734307824 0 0,0 -0.10747961891410032,-1.1860286385849184 l 48.0204484607007 -3.935285307257305" fill="#34ff5e" stroke="none" /><line stroke="#e1ed5e" stroke-width="0.3" x1="15.007084014347285" x2="10.007500721073583" y1="101.09737516637583" y2="101.16192664675087" /><path d="M 14.007167355692545 101.11028546245083 a86.0,86.0 0 0,1 10.666146001902534,-42.60595125391555" fill="none" id="id10" stroke="none" /><text fill="#e1ed5e" style="font-size:6.75px; font-family:Arial;" text-anchor="middle"><textPath startOffset="22.20632615414155" xlink:href="#id10">October</textPath></text><line stroke="#e1ed5e" stroke-width="0.3" x1="26.266209847984243" x2="21.928928074336255" y1="57.711370442889674" y2="55.22380399835377" /><path d="M 25.398753493254645 57.213857153982495 a86.0,86.0 0 0,1 29.58750427330803,-30.492523968695096" fill="none" id="id11" stroke="none" /><text fill="#e1ed5e" style="font-size:6.75px; font-family:Arial;" text-anchor="middle"><textPath startOffset="21.46611528233685" xlink:href="#id11">November</textPath></text><line stroke="#e1ed5e" stroke-width="0.3" x1="56.762969772571076" x2="54.21961505331055" y1="26.818313649435495" y2="22.513508569990535" /><path d="M 56.25429882871897 25.957352633546506 a86.0,86.0 0 0,1 42.265352541879196,-11.944610805530505" fill="none" id="id12" stroke="none" /><text fill="#e1ed5e" style="font-size:6.75px; font-family:Arial;" text-anchor="middle"><textPath startOffset="22.20632615414155" xlink:href="#id12">December</textPath></text></svg>