<?xml version="1.0" encoding="utf-8" ?>
<svg baseProfile="full" height="200mm" version="1.1" viewBox="0,0,200,200" width="200mm" xmlns="http://www.w3.org/2000/svg" xmlns:ev="http://www.w3.org/2001/xml-events" xmlns:xlink="http://www.w3.org/1999/xlink"><defs /><rect fill="#1a1a1a" height="200" width="200" x="0" y="0" /><text alignment-baseline="middle" fill="#e1ed5e" style="dominant-baseline: central; font-size:9.0px; font-family:Arial;" text-anchor="middle" x="100.0" y="100.0">2015</text><line stroke="#e1ed5e" stroke-width="0.3" x1="100.0" x2="100.0" y1="15.0" y2="10.0" /><path d="M 100.0 14.0 a86.0,86.0 0 0,1 42.46469731375804,11.215312516191453" fill="none" id="id1" stroke="none" /><text fill="#e1ed5e" style="font-size:6.75px; font-family:Arial;" text-anchor="middle"><textPath startOffset="22.20632615414155" xlink:href="#id1">January</textPath></text><line stroke="#e1ed5e" stroke-width="0.3" x1="143.23703022742887" x2="145.7803849466894" y1="26.81831364943548" y2="22.513508569990506" /><path d="M 143.74570117128098 25.957352633546492 a86.0,86.0 0 0,1 28.547481713284135,27.462654790039103" fill="none" id="id2" stroke="none" /><text fill="#e1ed5e" style="font-size:6.75px; font-family:Arial;" text-anchor="middle"><textPath startOffset="19.985693538727396" xlink:href="#id2">February</textPath></text><line stroke="#e1ed5e" stroke-width="0.3" x1="172.23445277983987" x2="176.4835382374775" y1="55.19839476539836" y2="52.563006222186495" /><path d="M 173.08426987136738 54.67131705675599 a86.0,86.0 0 0,1 12.851231095245387,41.99856678651699" fill="none" id="id3" stroke="none" /><text fill="#e1ed5e" style="font-size:6.75px; font-family:Arial;" text-anchor="middle"><textPath startOffset="22.20632615414155" xlink:href="#id3">March</textPath></text><line stroke="#e1ed5e" stroke-width="0.3" x1="184.98032266829074" x2="189.97916517819016" y1="98.17113171792111" y2="98.06355123074" /><path d="M 185.9800911702706 98.14961562048488 a86.0,86.0 0 0,1 -9.607161424134198,41.387399972396054" fill="none" id="id4" stroke="none" /><text fill="#e1ed5e" style="font-size:6.75px; font-family:Arial;" text-anchor="middle"><textPath startOffset="21.466115282336823" xlink:href="#id4">April</textPath></text><line stroke="#e1ed5e" stroke-width="0.3" x1="174.80103733775053" x2="179.2010983576182" y1="140.37084112569926" y2="142.7455964860345" /><path d="M 175.68104954172406 140.8457921977663 a86.0,86.0 0 0,1 -30.038265399797805,32.042727171017184" fill="none" id="id5" stroke="none" /><text fill="#e1ed5e" style="font-size:6.75px; font-family:Arial;" text-anchor="middle"><textPath startOffset="22.206326154141568" xlink:href="#id5">May</textPath></text><path d="M 111.7513745106137 117.40417183066458 l 20.58762702495304 30.490952186426743 a57.79060412324781,57.79060412324781 0 0,0 -0.829227199877958,0.5495665717019429 l -20.059725126335117 -30.840816779220006" fill="#a5ff21" stroke="none" /><path d="M 111.45004920935366 117.60387380957326 l 20.942263064934398 32.197674397838014 a59.40922570047604,59.40922570047604 0 0,0 -0.8620510570112497,0.5502017711186893 l -20.38493020587622 -32.55339059778051" fill="#8dff24" stroke="none" /><line stroke="#e1ed5e" stroke-width="0.3" x1="143.8653032363475" x2="146.44561519142675" y1="172.8068346515853" y2="177.08958963109032" /><path d="M 144.38136562736335 173.6633856474863 a86.0,86.0 0 0,1 -40.68145358897372,12.25698825130547" fill="none" id="id6" stroke="none" /><text fill="#e1ed5e" style="font-size:6.75px; font-family:Arial;" text-anchor="middle"><textPath startOffset="21.466115282336833" xlink:href="#id6">June</textPath></text><path d="M 110.8373102113329 117.98757091392108 l 19.613943295001516 32.55486730937398 a59.00692248933714,59.00692248933714 0 0,0 -0.8745166719247447,0.5166798643757797 l -19.05065875204839 -32.88766574604351" fill="#93ff23" stroke="none" /><path d="M 108.59647513512805 119.15986991738527 l 17.96334673206079 40.03680360346275 a64.88197202267108,64.88197202267108 0 0,0 -1.022908548768592,0.44841304726890807 l -17.271517508634442 -40.34008120402611" fill="#41ff2d" stroke="none" /><path d="M 107.2578585660854 119.70592522655815 l 16.968756471679747 46.07213590260819 a70.09766188754381,70.09766188754381 0 0,0 -1.1358506279010334,0.4072756235356519 l -16.17318628314898 -46.3573990671838" fill="#36ff6d" stroke="none" /><path d="M 105.88484417918355 120.15858648285463 l 15.691772787036612 53.75230833056116 a76.99591399435943,76.99591399435943 0 0,0 -1.2754513648540977,0.36045529584709923 l -14.764190254077908 -54.01445241974678" fill="#41ffd1" stroke="none" /><path d="M 104.83641907484287 120.43548508189849 l 14.081335813708549 59.498344436496815 a82.14194148849415,82.14194148849415 0 0,0 -1.3787323459259373,0.31379499316560594 l -13.05508331838975 -59.73191616324011" fill="#4ae9ff" stroke="none" /><path d="M 101.98527174616119 120.90594882070398 l 5.757655601789734 60.63112194640712 a81.90388777827661,81.90388777827661 0 0,0 -1.4046738372574008,0.12120116923782796 l -4.713137446790792 -60.72124736792361" fill="#4aecff" stroke="none" /><line stroke="#e1ed5e" stroke-width="0.3" x1="102.19456741930631" x2="102.32365962044197" y1="184.97166512339345" y2="189.96999836594603" /><path d="M 102.22038585953345 185.97133177190398 a86.0,86.0 0 0,1 -42.740103519485714,-10.115201625700543" fill="none" id="id7" stroke="none" /><text fill="#e1ed5e" style="font-size:6.75px; font-family:Arial;" text-anchor="middle"><textPath startOffset="22.20632615414155" xlink:href="#id7">July</textPath></text><path d="M 100.54218724476979 120.99299961872073 l 1.624113524091069 62.884206371323394 a83.90517590540802,83.90517590540802 0 0,0 -1.444129180898139,0.024861993498452705 l -0.541424653300262 -62.90284584210101" fill="#4dd3ff" stroke="none" /><path d="M 98.37488393609728 120.93702456842531 l -4.875348191708155 62.81107370527595 a84.0,84.0 0 0,0 -1.4406227290338331,-0.12430299088534635 l 5.955815238483529 -62.71784646211194" fill="#4dd2ff" stroke="none" /><path d="M 96.58105272829116 120.7198165907248 l -9.986611857740076 60.521777497817176 a82.34018232686013,82.34018232686013 0 0,0 -1.3964543154709605,-0.2427914825961288 l 11.026915144683086 -60.34090743670004" fill="#4ae6ff" stroke="none" /><path d="M 94.46302465271185 120.25689768951611 l -4.43107693687056 16.210993644485548 a37.8056763553871,37.8056763553871 0 0,0 -0.6262579272744537,-0.17698674576911608 l 4.709466032249628 -16.132318105377912" fill="#ff0000" stroke="none" /><path d="M 93.76903079525671 120.05430185196036 l -18.28344299659749 58.84504845052957 a82.61999687564908,82.61999687564908 0 0,0 -1.354490542520913,-0.433665098313654 l 19.293654884209342 -58.52161050555621" fill="#4be3ff" stroke="none" /><path d="M 92.7421414339146 119.70592522655815 l -21.425955764224796 58.17394736379992 a82.99419111736745,82.99419111736745 0 0,0 -1.3363241676521114,-0.5052834554923784 l 22.42415015263719 -57.79651565820091" fill="#4bdeff" stroke="none" /><path d="M 91.07499286063937 119.00905698771935 l -26.1478679750486 55.69141903013288 a82.52434602033912,82.52434602033912 0 0,0 -1.2806494737901504,-0.6147895723596387 l 27.102630116838995 -55.233075181273676" fill="#4be4ff" stroke="none" /><path d="M 90.10565033884886 118.52300852407294 l -28.065369807948517 52.54060165520855 a80.5665997413669,80.5665997413669 0 0,0 -1.2176190896771304,-0.6639430114844178 l 28.965611709494286 -52.049717991964364" fill="#47fdff" stroke="none" /><line stroke="#e1ed5e" stroke-width="0.3" x1="58.666819895761336" x2="56.23545636021788" y1="174.27360380694188" y2="178.64263932499728" /><path d="M 58.180547188652646 175.14741091055294 a86.0,86.0 0 0,1 -31.652253787137756,-30.449443065178592" fill="none" id="id8" stroke="none" /><text fill="#e1ed5e" style="font-size:6.75px; font-family:Arial;" text-anchor="middle"><textPath startOffset="22.20632615414155" xlink:href="#id8">August</textPath></text><path d="M 89.1626897886671 117.98757091392108 l -31.893157484528086 52.935684292019864 a82.80097220754143,82.80097220754143 0 0,0 -1.214496271702361,-0.746042804737608 l 32.79963295616276 -52.37885302045388" fill="#4be1ff" stroke="none" /><path d="M 88.24862548938628 117.40417183066458 l -34.58120875823195 51.2159065985652 a82.79748447868548,82.79748447868548 0 0,0 -1.1743171772628274,-0.8077060625170764 l 35.45768282011767 -50.613059746683014" fill="#4be1ff" stroke="none" /><path d="M 87.07902340077011 116.55440617244103 l -37.79767760903432 48.426533606773035 a82.43121022578354,82.43121022578354 0 0,0 -1.1110255438403964,-0.8826658860615332 l 38.62566064559207 -47.76873380670637" fill="#4ae5ff" stroke="none" /><path d="M 86.24171649860922 115.8653595955263 l -40.37006575699753 46.552726585773854 a82.61897890905139,82.61897890905139 0 0,0 -1.0664050489689394,-0.9409784669261164 l 41.16541315887306 -45.85092497707545" fill="#4be3ff" stroke="none" /><path d="M 85.18274418774928 114.88116024355367 l -44.41994727650433 44.61152333520101 a83.95490235346735,83.95490235346735 0 0,0 -1.0152921202481098,-1.028485557493083 l 45.18128002180797 -43.84029728372727" fill="#4dd3ff" stroke="none" /><path d="M 84.43433777217949 114.09645910891817 l -45.77334524285216 41.452916043688674 a82.75389366871079,82.75389366871079 0 0,0 -0.9471031428770021,-1.0640804211937944 l 46.4801072353775 -40.65886145275401" fill="#4be1ff" stroke="none" /><path d="M 82.64656182679789 111.8261652097733 l -51.27090185551358 34.94052012895682 a83.04470423782954,83.04470423782954 0 0,0 -0.7948441744708524,-1.1881841949601435 l 51.86474913539516 -34.052799019790854" fill="#4bdeff" stroke="none" /><line stroke="#e1ed5e" stroke-width="0.3" x1="26.63291911575756" x2="22.317208475507996" y1="142.92168965132927" y2="145.44649492493687" /><path d="M 25.769776987707644 143.4266507060508 a86.0,86.0 0 0,1 -11.730757126820373,-40.83630448921669" fill="none" id="id9" stroke="none" /><text fill="#e1ed5e" style="font-size:6.75px; font-family:Arial;" text-anchor="middle"><textPath startOffset="21.46611528233685" xlink:href="#id9">September</textPath></text><path d="M 81.51974371655577 109.97397251340807 l -54.43115252259033 29.377017872841797 a82.8527246290635,82.8527246290635 0 0,0 -0.6665600006102136,-1.2608803214596478 l 54.928765031425435 -28.435722536296023" fill="#4be0ff" stroke="none" /><path d="M 80.87730276802145 108.67885076344099 l -56.09070353097739 25.45680869473235 a82.59720879650473,82.59720879650473 0 0,0 -0.576445586925701,-1.2997326213269107 l 56.520590202634374 -24.487527736912742" fill="#4be3ff" stroke="none" /><path d="M 80.0844068197444 106.66101706037122 l -59.0379860319178 19.745986404182784 a83.25261258597178,83.25261258597178 0 0,0 -0.4428553309045323,-1.362968561275184 l 59.36913361383858 -18.726818942929796" fill="#4cdbff" stroke="none" /><path d="M 79.76711848015287 105.62410040840567 l -58.871145354882785 16.36431431227042 a82.10321217666478,82.10321217666478 0 0,0 -0.3667742987053584,-1.36490360887077 l 59.144107729929914 -15.348519770224112" fill="#4ae9ff" stroke="none" /><path d="M 79.35854240842038 103.8639653848113 l -52.708563861827706 9.866748282752065 a74.62411235677062,74.62411235677062 0 0,0 -0.22548406744367644,-1.2646343967120264 l 52.870594371610565 -8.957995135306824" fill="#3dffb0" stroke="none" /><path d="M 79.10278846688536 102.07522291339032 l -40.725539144116915 4.0442990136803685 a61.92585848935921,61.92585848935921 0 0,0 -0.09620743495733551,-1.0616410279179564 l 40.789121175351326 -3.342676597213846" fill="#69ff28" stroke="none" /><line stroke="#e1ed5e" stroke-width="0.3" x1="15.007084014347285" x2="10.007500721073583" y1="101.09737516637583" y2="101.16192664675087" /><path d="M 14.007167355692545 101.11028546245083 a86.0,86.0 0 0,1 10.666146001902534,-42.60595125391555" fill="none" id="id10" stroke="none" /><text fill="#e1ed5e" style="font-size:6.75px; font-family:Arial;" text-anchor="middle"><textPath startOffset="22.20632615414155" xlink:href="#id10">October</textPath></text><line stroke="#e1ed5e" stroke-width="0.3" x1="26.266209847984257" x2="21.92892807433627" y1="57.711370442889674" y2="55.22380399835377" /><path d="M 25.39875349325466 57.213857153982495 a86.0,86.0 0 0,1 29.58750427330802,-30.492523968695096" fill="none" id="id11" stroke="none" /><text fill="#e1ed5e" style="font-size:6.75px; font-family:Arial;" text-anchor="middle"><textPath startOffset="21.46611528233685" xlink:href="#id11">November</textPath></text><line stroke="#e1ed5e" stroke-width="0.3" x1="56.762969772571076" x2="54.21961505331055" y1="26.818313649435495" y2="22.513508569990535" /><path d="M 56.25429882871897 25.957352633546506 a86.0,86.0 0 0,1 42.265352541879196,-11.944610805530505" fill="none" id="id12" stroke="none" /><text fill="#e1ed5e" style="font-size:6.75px; font-family:Arial;" text-anchor="middle"><textPath startOffset="22.20632615414155" xlink:href="#id12">December</textPath></text></svg>